<?xml version="1.0" standalone="no"?>
<!DOCTYPE svg PUBLIC "-//W3C//DTD SVG 20010904//EN"
 "http://www.w3.org/TR/2001/REC-SVG-20010904/DTD/svg10.dtd">
<svg version="1.0" xmlns="http://www.w3.org/2000/svg"
 width="100.000000pt" height="100.000000pt" viewBox="0 0 100.000000 100.000000"
 preserveAspectRatio="xMidYMid meet">
<metadata>
Created by potrace 1.16, written by Peter Selinger 2001-2019
</metadata>
<g transform="translate(0.000000,100.000000) scale(0.100000,-0.100000)"
fill="#F9F9F9" stroke="none">
<path d="M397 909 c-90 -21 -191 -92 -247 -174 -79 -115 -92 -280 -33 -407 44
-93 109 -160 202 -206 72 -36 79 -37 181 -37 102 0 109 1 181 37 93 46 158
112 202 206 30 62 32 75 32 173 0 101 -1 108 -38 181 -58 118 -159 200 -279
228 -52 12 -149 11 -201 -1z m239 -113 c205 -94 254 -366 94 -526 -127 -127
-333 -127 -460 0 -127 127 -127 333 -1 459 99 99 241 125 367 67z"/>
<path d="M450 610 l0 -60 -60 0 -60 0 0 -50 0 -50 60 0 60 0 0 -60 0 -60 50 0
50 0 0 60 0 60 60 0 60 0 0 50 0 50 -60 0 -60 0 0 60 0 60 -50 0 -50 0 0 -60z"/>
</g>
</svg>
