<?xml version="1.0" standalone="no"?>
<!DOCTYPE svg PUBLIC "-//W3C//DTD SVG 20010904//EN"
 "http://www.w3.org/TR/2001/REC-SVG-20010904/DTD/svg10.dtd">
<svg version="1.0" xmlns="http://www.w3.org/2000/svg"
 width="100.000000pt" height="100.000000pt" viewBox="0 0 100.000000 100.000000"
 preserveAspectRatio="xMidYMid meet">
<metadata>
Created by potrace 1.16, written by Peter Selinger 2001-2019
</metadata>
<g transform="translate(0.000000,100.000000) scale(0.100000,-0.100000)"
fill="#90EE90" stroke="none">
<path d="M210 947 c-17 -8 -42 -47 -80 -122 l-55 -110 2 -96 c1 -57 14 -162
32 -257 l30 -159 -21 -65 c-25 -76 -20 -101 19 -96 24 3 30 11 52 81 l25 77
-31 173 c-50 274 -50 279 7 405 27 59 54 108 60 110 19 7 21 -26 5 -89 -10
-35 -17 -82 -17 -103 1 -24 -7 -49 -19 -64 -23 -30 -24 -65 -4 -168 20 -101
30 -124 54 -124 40 0 44 22 22 131 -18 87 -19 105 -8 117 20 19 29 4 71 -123
41 -125 44 -164 17 -232 -24 -62 -46 -176 -38 -197 8 -19 40 -21 55 -3 6 7 18
46 28 87 9 41 23 87 30 102 26 51 17 143 -27 278 -45 136 -52 148 -86 161 -28
10 -29 39 -8 119 26 98 20 142 -26 165 -34 18 -56 19 -89 2z"/>
<path d="M679 931 c-33 -34 -36 -60 -14 -141 23 -87 20 -117 -14 -135 -31 -16
-41 -35 -91 -194 -35 -110 -38 -180 -11 -248 10 -26 24 -75 31 -108 14 -67 24
-85 50 -85 37 0 41 23 20 113 -11 47 -27 101 -35 121 -22 53 -19 79 26 213 33
100 44 123 60 123 24 0 24 -13 0 -125 -21 -95 -17 -125 19 -125 25 0 35 19 54
114 22 108 21 158 -4 181 -15 14 -19 26 -15 46 3 14 -3 64 -15 109 -17 67 -19
85 -8 91 18 11 21 7 73 -108 44 -97 45 -105 40 -170 -3 -37 -20 -143 -38 -235
l-31 -167 22 -70 c25 -76 50 -97 80 -67 15 15 15 21 -6 79 l-22 63 29 146 c17
80 33 190 37 244 l6 99 -52 116 c-39 85 -61 121 -81 133 -41 24 -76 20 -110
-13z"/>
</g>
</svg>
