<?xml version="1.0" standalone="no"?>
<!DOCTYPE svg PUBLIC "-//W3C//DTD SVG 20010904//EN"
 "http://www.w3.org/TR/2001/REC-SVG-20010904/DTD/svg10.dtd">
<svg version="1.0" xmlns="http://www.w3.org/2000/svg"
 width="512.000000pt" height="512.000000pt" viewBox="0 0 512.000000 512.000000"
 preserveAspectRatio="xMidYMid meet">

<g transform="translate(0.000000,512.000000) scale(0.100000,-0.100000)"
fill="#000000" stroke="none">
<path d="M445 4610 c-207 -26 -376 -177 -430 -385 -22 -85 -22 -621 0 -714 33
-137 130 -264 253 -329 l62 -33 0 -1097 c0 -1200 -2 -1149 58 -1272 15 -30 56
-85 92 -121 66 -67 122 -101 220 -135 53 -18 117 -19 1860 -19 1743 0 1807 1
1860 19 98 34 154 68 220 135 36 36 77 91 92 121 60 123 58 72 58 1272 l0
1097 62 33 c123 65 220 192 253 329 22 93 22 629 0 714 -25 95 -65 165 -135
236 -66 67 -109 94 -210 133 l-55 21 -2100 1 c-1155 1 -2127 -2 -2160 -6z
m4222 -387 c71 -33 73 -43 73 -362 l0 -283 -39 -39 -39 -39 -2102 0 -2102 0
-39 39 -39 39 0 283 c0 318 2 328 71 362 31 15 194 17 2107 17 1917 0 2077 -1
2109 -17z m-257 -2175 c0 -1032 -1 -1074 -19 -1104 -42 -69 101 -64 -1831 -64
-1932 0 -1789 -5 -1831 64 -18 30 -19 72 -19 1104 l0 1072 1850 0 1850 0 0
-1072z"/>
<path d="M3294 1600 c-49 -32 -67 -83 -63 -183 4 -97 21 -129 80 -159 30 -16
66 -18 284 -18 232 0 252 2 283 20 56 34 72 73 72 175 0 72 -4 97 -20 122 -36
60 -51 63 -342 63 -245 0 -265 -2 -294 -20z"/>
</g>
</svg>
