<?xml version="1.0" standalone="no"?>
<!DOCTYPE svg PUBLIC "-//W3C//DTD SVG 20010904//EN"
 "http://www.w3.org/TR/2001/REC-SVG-20010904/DTD/svg10.dtd">
<svg version="1.0" xmlns="http://www.w3.org/2000/svg"
 width="100.000000pt" height="100.000000pt" viewBox="0 0 100.000000 100.000000"
 preserveAspectRatio="xMidYMid meet">
<metadata>
Created by potrace 1.16, written by Peter Selinger 2001-2019
</metadata>
<g transform="translate(0.000000,100.000000) scale(0.100000,-0.100000)"
fill="#F9F9F9" stroke="none">
<path d="M284 838 c-88 -50 -171 -99 -186 -110 l-28 -19 0 -208 c0 -235 -7
-214 90 -268 30 -17 106 -60 169 -97 l113 -65 39 20 c27 13 39 26 39 40 0 18
-4 20 -25 15 l-25 -6 0 174 0 174 150 86 c82 47 152 86 155 86 3 0 5 -31 5
-70 0 -63 2 -70 20 -70 19 0 20 7 20 98 l0 98 -167 96 c-93 53 -178 101 -189
107 -18 9 -44 -3 -180 -81z m200 21 c20 -12 36 -22 36 -24 0 -2 -68 -42 -150
-90 -154 -89 -164 -91 -207 -57 -22 17 -21 18 125 104 81 47 150 86 154 87 4
1 23 -8 42 -20z m218 -126 c60 -33 70 -21 -122 -132 l-134 -78 -49 30 c-26 16
-47 31 -45 32 5 5 292 174 297 174 2 1 26 -11 53 -26z m-502 -179 l0 -62 44
-26 c66 -39 76 -35 76 24 0 28 3 50 6 50 3 0 25 -12 50 -26 l44 -26 0 -99 0
-99 -65 36 c-62 34 -85 37 -85 11 0 -15 117 -83 136 -79 8 2 14 -4 14 -13 0
-13 -13 -9 -65 20 -64 35 -85 38 -85 10 0 -17 125 -89 140 -80 6 4 10 -6 10
-24 0 -17 -2 -31 -5 -31 -3 0 -73 39 -155 86 l-150 86 0 179 0 179 45 -28 45
-27 0 -61z"/>
<path d="M635 471 c-157 -71 -165 -287 -15 -371 54 -29 138 -33 187 -8 29 15
34 14 62 -3 55 -33 69 -11 40 67 -4 13 -2 39 8 65 17 51 12 103 -17 159 -49
95 -167 136 -265 91z m152 -40 c79 -36 113 -124 83 -215 -6 -19 -9 -44 -5 -55
5 -16 2 -18 -15 -14 -11 3 -35 -2 -54 -11 -42 -20 -52 -20 -37 -2 7 8 11 30 9
48 -3 32 -4 33 -48 33 l-45 0 0 -48 c0 -26 -2 -47 -5 -47 -18 0 -73 45 -90 72
-55 90 -22 196 74 239 52 23 80 23 133 0z"/>
<path d="M661 417 c-12 -15 -4 -140 11 -169 10 -20 82 -26 93 -7 4 6 9 46 12
91 5 62 3 82 -8 89 -21 13 -95 11 -108 -4z"/>
</g>
</svg>
