<?xml version="1.0" standalone="no"?>
<!DOCTYPE svg PUBLIC "-//W3C//DTD SVG 20010904//EN"
 "http://www.w3.org/TR/2001/REC-SVG-20010904/DTD/svg10.dtd">
<svg version="1.0" xmlns="http://www.w3.org/2000/svg"
 width="100.000000pt" height="100.000000pt" viewBox="0 0 100.000000 100.000000"
 preserveAspectRatio="xMidYMid meet">
<metadata>
Created by potrace 1.16, written by Peter Selinger 2001-2019
</metadata>
<g transform="translate(0.000000,100.000000) scale(0.100000,-0.100000)"
fill="#F9F9F9" stroke="none">
<path d="M219 977 c-60 -40 -69 -72 -69 -244 l0 -152 -72 -3 -73 -3 -3 -145
c-3 -169 -3 -170 90 -170 l58 0 0 -73 c0 -84 19 -130 70 -164 32 -23 39 -23
314 -23 322 0 332 2 373 80 22 42 23 50 23 340 l0 297 -28 39 c-16 21 -77 85
-136 142 l-106 102 -204 0 c-194 0 -204 -1 -237 -23z m379 -69 c8 -8 12 -46
12 -103 0 -57 4 -95 12 -103 7 -7 44 -12 96 -12 132 0 122 24 122 -291 l0
-270 -25 -24 -24 -25 -249 0 c-237 0 -251 1 -276 21 -24 19 -26 27 -26 90 l0
69 230 0 c288 0 270 -11 270 161 0 66 -5 129 -10 140 -10 18 -24 19 -250 19
l-240 0 0 149 0 150 26 20 c24 19 40 21 173 21 101 0 151 -4 159 -12z m-377
-378 c5 0 9 -9 9 -20 0 -17 -7 -20 -40 -20 -45 0 -60 -18 -60 -74 0 -43 35
-72 76 -62 22 6 25 4 22 -16 -2 -17 -11 -24 -32 -26 -91 -11 -147 92 -96 175
19 32 70 56 98 47 8 -2 18 -4 23 -4z m192 4 c9 -3 13 -13 10 -25 -4 -14 -14
-19 -39 -19 -45 0 -44 -20 4 -51 30 -20 38 -31 40 -61 4 -46 -27 -71 -85 -66
-31 2 -39 7 -41 26 -3 21 -1 22 36 16 59 -9 63 17 9 53 -32 22 -43 36 -45 60
-5 50 58 88 111 67z m142 -74 c10 -39 20 -68 24 -65 3 4 13 34 21 68 14 56 19
62 44 65 15 2 26 0 23 -5 -3 -4 -19 -54 -36 -110 -29 -94 -34 -103 -56 -103
-22 0 -27 8 -46 73 -11 39 -25 85 -30 101 -13 42 -12 46 15 46 21 0 26 -8 41
-70z"/>
</g>
</svg>
