<?xml version="1.0" standalone="no"?>
<!DOCTYPE svg PUBLIC "-//W3C//DTD SVG 20010904//EN"
 "http://www.w3.org/TR/2001/REC-SVG-20010904/DTD/svg10.dtd">
<svg version="1.0" xmlns="http://www.w3.org/2000/svg"
 width="100.000000pt" height="100.000000pt" viewBox="0 0 100.000000 100.000000"
 preserveAspectRatio="xMidYMid meet">
<metadata>
Created by potrace 1.16, written by Peter Selinger 2001-2019
</metadata>
<g transform="translate(0.000000,100.000000) scale(0.100000,-0.100000)"
fill="#currentColor" stroke="none">
<path d="M249 920 c-72 -38 -151 -153 -135 -195 10 -27 35 -16 51 22 26 61 62
100 120 128 38 19 55 33 55 46 0 25 -43 25 -91 -1z"/>
<path d="M517 890 c-24 -20 -45 -30 -68 -30 -19 0 -70 -13 -113 -28 -112 -38
-118 -49 -127 -208 l-6 -126 -72 -72 c-45 -46 -71 -80 -71 -94 0 -40 34 -24
113 56 l77 77 6 125 c4 69 10 135 15 147 8 23 89 58 159 69 49 8 62 -2 121
-93 40 -60 41 -65 25 -81 -16 -16 -19 -14 -60 32 -41 48 -43 49 -81 40 -51
-12 -54 -30 -15 -90 35 -56 64 -145 55 -173 -3 -11 1 -24 11 -32 14 -11 18
-10 31 6 20 27 11 98 -21 164 l-25 52 35 -31 c19 -16 42 -30 52 -30 9 0 25
-14 35 -31 9 -17 26 -33 37 -36 13 -4 20 -14 20 -30 0 -33 42 -73 77 -73 26 0
25 -2 -32 -61 -95 -96 -123 -105 -220 -68 -31 11 -62 18 -70 15 -27 -10 -16
-37 21 -52 l37 -15 -63 -64 c-42 -43 -61 -68 -57 -79 11 -28 31 -17 102 54 62
62 74 70 108 70 61 0 104 25 193 112 59 58 88 94 101 127 9 25 23 55 30 66 25
37 8 109 -29 120 -13 5 -18 16 -18 41 0 34 -35 84 -60 84 -5 0 -10 11 -10 25
0 33 -42 75 -75 75 -15 0 -25 6 -25 14 0 22 -49 56 -81 56 -17 0 -42 -12 -62
-30z"/>
<path d="M861 341 c-36 -55 -107 -125 -163 -160 -42 -25 -52 -61 -18 -61 65 0
259 193 248 248 -7 34 -35 23 -67 -27z"/>
</g>
</svg>
