<?xml version="1.0" standalone="no"?>
<!DOCTYPE svg PUBLIC "-//W3C//DTD SVG 20010904//EN"
 "http://www.w3.org/TR/2001/REC-SVG-20010904/DTD/svg10.dtd">
<svg version="1.0" xmlns="http://www.w3.org/2000/svg"
 width="100.000000pt" height="100.000000pt" viewBox="0 0 100.000000 100.000000"
 preserveAspectRatio="xMidYMid meet">
<metadata>
Created by potrace 1.16, written by Peter Selinger 2001-2019
</metadata>
<g transform="translate(0.000000,100.000000) scale(0.100000,-0.100000)"
fill="#F9F9F9" stroke="none">
<path d="M207 909 c-38 -22 -47 -62 -47 -216 0 -137 -1 -149 -20 -161 -18 -11
-20 -23 -20 -152 0 -127 2 -142 20 -160 11 -11 20 -29 20 -40 0 -29 27 -78 49
-90 22 -11 521 -14 521 -3 0 4 -12 20 -27 35 l-27 28 -211 0 c-213 0 -235 4
-235 37 0 10 47 13 223 13 210 0 224 1 240 20 11 13 29 20 52 20 28 0 35 4 35
20 0 20 -7 20 -295 20 l-295 0 0 95 0 95 310 0 c303 0 310 0 310 -20 0 -16 7
-20 35 -20 34 0 35 1 35 40 0 27 -7 47 -20 60 -14 14 -20 33 -20 62 0 41 -4
47 -143 185 l-143 143 -164 0 c-93 0 -173 -5 -183 -11z m293 -166 c1 -151 13
-163 169 -163 83 0 101 -3 101 -15 0 -13 -37 -15 -270 -15 l-270 0 0 138 c0
94 4 142 12 150 8 8 53 12 135 12 l123 0 0 -107z"/>
<path d="M310 375 c0 -80 1 -85 21 -85 12 0 23 8 26 20 3 12 14 20 28 20 30 0
55 30 55 67 0 42 -27 63 -83 63 l-47 0 0 -85z"/>
<path d="M454 447 c-3 -8 -4 -45 -2 -83 l3 -69 34 -3 c88 -9 133 88 69 148
-25 23 -96 28 -104 7z"/>
<path d="M817 393 c-4 -3 -7 -55 -7 -115 l0 -109 -26 20 c-35 27 -71 27 -79 0
-6 -17 6 -34 56 -85 37 -37 72 -64 84 -64 12 0 45 25 79 59 44 44 57 64 54 82
-4 33 -43 37 -74 8 l-24 -22 0 100 c0 56 -3 108 -6 117 -6 16 -45 22 -57 9z"/>
</g>
</svg>
