<?xml version="1.0" standalone="no"?>
<!DOCTYPE svg PUBLIC "-//W3C//DTD SVG 20010904//EN"
 "http://www.w3.org/TR/2001/REC-SVG-20010904/DTD/svg10.dtd">
<svg version="1.0" xmlns="http://www.w3.org/2000/svg"
 width="100.000000pt" height="100.000000pt" viewBox="0 0 100.000000 100.000000"
 preserveAspectRatio="xMidYMid meet">
<metadata>
Created by potrace 1.16, written by Peter Selinger 2001-2019
</metadata>
<g transform="translate(0.000000,100.000000) scale(0.100000,-0.100000)"
fill="#F9F9F9" stroke="none">
<path d="M204 905 c-36 -25 -45 -64 -42 -180 l3 -110 33 -3 32 -3 0 101 c0 56
5 110 10 121 10 18 23 19 175 19 l165 0 0 -61 c0 -33 5 -69 10 -80 17 -30 64
-49 125 -49 l55 0 0 -45 0 -45 -303 0 c-258 0 -306 -2 -325 -16 -21 -14 -22
-22 -22 -155 0 -126 2 -141 20 -159 11 -11 20 -33 20 -50 0 -38 24 -86 49
-100 12 -6 100 -10 214 -10 165 0 197 2 208 16 9 11 10 20 2 32 -9 15 -35 17
-194 20 -159 2 -186 5 -196 19 -7 9 -13 25 -13 35 0 17 15 18 239 18 132 0
246 3 255 6 21 8 21 60 0 68 -9 3 -132 6 -275 6 l-259 0 0 100 0 100 309 0
310 0 3 -37 c2 -31 7 -39 27 -41 31 -5 41 12 41 70 0 37 -5 51 -20 60 -17 11
-20 24 -20 87 l0 74 -102 103 -102 104 -206 0 c-164 0 -210 -3 -226 -15z"/>
<path d="M296 458 c-23 -33 -21 -103 4 -128 34 -34 110 -20 110 21 0 24 -25
35 -45 19 -19 -16 -35 -4 -35 25 0 29 16 41 35 25 32 -26 62 19 33 48 -21 21
-85 15 -102 -10z"/>
<path d="M440 465 c-18 -22 -15 -66 6 -82 16 -12 16 -13 1 -13 -10 0 -20 -7
-23 -15 -10 -26 16 -45 62 -45 36 0 47 5 61 26 15 24 16 29 2 53 -11 19 -13
31 -6 43 6 8 7 23 4 32 -8 21 -89 22 -107 1z"/>
<path d="M570 461 c0 -11 13 -49 30 -85 40 -89 58 -89 93 2 32 81 34 102 7
102 -12 0 -26 -13 -38 -37 l-19 -37 -14 37 c-10 28 -19 37 -36 37 -16 0 -23
-6 -23 -19z"/>
<path d="M817 353 c-4 -3 -7 -58 -7 -122 l0 -115 -28 27 c-15 15 -35 27 -43
27 -17 0 -39 -19 -39 -33 0 -19 124 -137 144 -137 33 0 139 111 134 141 -4 32
-34 36 -69 10 l-29 -22 0 104 c0 67 -4 107 -12 115 -13 13 -41 16 -51 5z"/>
</g>
</svg>
