<?xml version="1.0" standalone="no"?>
<!DOCTYPE svg PUBLIC "-//W3C//DTD SVG 20010904//EN"
 "http://www.w3.org/TR/2001/REC-SVG-20010904/DTD/svg10.dtd">
<svg version="1.0" xmlns="http://www.w3.org/2000/svg"
 width="80.000000pt" height="80.000000pt" viewBox="0 0 80.000000 80.000000"
 preserveAspectRatio="xMidYMid meet">
<metadata>
Created by potrace 1.16, written by Peter Selinger 2001-2019
</metadata>
<g transform="translate(0.000000,80.000000) scale(0.100000,-0.100000)"
fill="#currentColor" stroke="none">
<path d="M100 683 c0 -9 -10 -27 -22 -40 l-21 -23 21 -23 c12 -13 22 -31 22
-40 0 -15 20 -17 220 -17 l220 0 0 80 0 80 -220 0 c-200 0 -220 -2 -220 -17z
m415 -63 l0 -55 -189 -3 c-112 -1 -193 1 -199 7 -11 11 -13 83 -3 100 5 8 63
11 199 9 l192 -3 0 -55z"/>
<path d="M180 463 c0 -9 -10 -27 -22 -40 l-21 -23 21 -23 c12 -13 22 -31 22
-40 0 -15 20 -17 220 -17 l220 0 0 80 0 80 -220 0 c-200 0 -220 -2 -220 -17z
m415 -63 l0 -55 -189 -3 c-112 -1 -193 1 -199 7 -11 11 -13 83 -3 100 5 8 63
11 199 9 l192 -3 0 -55z"/>
<path d="M260 243 c0 -9 -10 -27 -22 -40 l-21 -23 21 -23 c12 -13 22 -31 22
-40 0 -15 20 -17 220 -17 l220 0 0 80 0 80 -220 0 c-200 0 -220 -2 -220 -17z
m415 -63 l0 -55 -189 -3 c-112 -1 -193 1 -199 7 -11 11 -13 83 -3 100 5 8 63
11 199 9 l192 -3 0 -55z"/>
</g>
</svg>
