<?xml version="1.0" encoding="UTF-8"?>
<svg version="1.1" xmlns="http://www.w3.org/2000/svg" width="96" height="96">
<path d="M0 0 C0.69641602 -0.00700928 1.39283203 -0.01401855 2.11035156 -0.02124023 C4.40730932 -0.03881383 6.70303021 -0.02720107 9 -0.01367188 C10.59896073 -0.01636701 12.19791987 -0.0202496 13.796875 -0.02526855 C17.14599226 -0.03116269 20.49468243 -0.0226038 23.84375 -0.00390625 C28.13478591 0.01888377 32.42482111 0.00576017 36.71582031 -0.01819611 C40.01700366 -0.03265667 43.31795011 -0.02804703 46.61914062 -0.01768494 C48.20117308 -0.01501834 49.78322711 -0.0182851 51.36523438 -0.02760315 C53.57740163 -0.03777366 55.787953 -0.02226378 58 0 C59.8871875 0.00477356 59.8871875 0.00477356 61.8125 0.00964355 C65 0.51757812 65 0.51757812 67.40515137 2.20422363 C69.36145995 5.04188181 69.50637196 6.6194577 69.51757812 10.04882812 C69.53018677 11.15677734 69.54279541 12.26472656 69.55578613 13.40625 C69.54768921 14.59798828 69.53959229 15.78972656 69.53125 17.01757812 C69.53699036 18.85932617 69.53699036 18.85932617 69.54284668 20.73828125 C69.54556842 23.33399272 69.53818911 25.92973149 69.52148438 28.52539062 C69.50008075 32.50257412 69.52127963 36.47795094 69.546875 40.45507812 C69.54423177 42.97591545 69.53910691 45.49675166 69.53125 48.01757812 C69.53934692 49.20931641 69.54744385 50.40105469 69.55578613 51.62890625 C69.54317749 52.73685547 69.53056885 53.84480469 69.51757812 54.98632812 C69.51439575 55.96021484 69.51121338 56.93410156 69.50793457 57.9375 C68.84750756 61.29217085 67.71333057 62.48459599 65 64.51757812 C62.94950867 64.93562317 62.94950867 64.93562317 60.74487305 64.82543945 C59.49657967 64.78239433 59.49657967 64.78239433 58.22306824 64.73847961 C57.32832291 64.69265244 56.43357758 64.64682526 55.51171875 64.59960938 C53.58795587 64.56045331 51.66411994 64.52476252 49.74023438 64.4921875 C46.72691611 64.42268878 43.72097723 64.33178315 40.71069336 64.1784668 C27.64696236 63.38875863 27.64696236 63.38875863 16.27197266 68.93701172 C12.93246016 72.10918964 9.94211698 75.51343353 7.13044739 79.1594696 C6.75739975 79.60764542 6.38435211 80.05582123 6 80.51757812 C5.67 80.51757812 5.34 80.51757812 5 80.51757812 C5 75.23757812 5 69.95757812 5 64.51757812 C3.1025 64.60007812 1.205 64.68257813 -0.75 64.76757812 C-6.36532329 65.01172262 -6.36532329 65.01172262 -9.15612793 62.83886719 C-11.4190145 59.99007202 -11.50580343 58.58968387 -11.51757812 54.98632812 C-11.53018677 53.87837891 -11.54279541 52.77042969 -11.55578613 51.62890625 C-11.54768921 50.43716797 -11.53959229 49.24542969 -11.53125 48.01757812 C-11.5350769 46.78974609 -11.53890381 45.56191406 -11.54284668 44.296875 C-11.54556842 41.70116353 -11.53818911 39.10542476 -11.52148438 36.50976562 C-11.50008075 32.53258213 -11.52127963 28.55720531 -11.546875 24.58007812 C-11.54423177 22.0592408 -11.53910691 19.53840459 -11.53125 17.01757812 C-11.53934692 15.82583984 -11.54744385 14.63410156 -11.55578613 13.40625 C-11.54317749 12.29830078 -11.53056885 11.19035156 -11.51757812 10.04882812 C-11.51439575 9.07494141 -11.51121338 8.10105469 -11.50793457 7.09765625 C-10.22580835 0.58503433 -5.94519734 0.01503812 0 0 Z M28 13.51757812 C27.3291288 15.14084683 26.66342971 16.76625391 26 18.39257812 C25.62875 19.2975 25.2575 20.20242187 24.875 21.13476562 C23.88509774 23.40741671 23.88509774 23.40741671 24 25.51757812 C22.98679687 25.48277344 22.98679687 25.48277344 21.953125 25.44726562 C21.06109375 25.42921875 20.1690625 25.41117188 19.25 25.39257812 C18.36828125 25.369375 17.4865625 25.34617187 16.578125 25.32226562 C13.8864142 25.52618311 12.30095026 26.15206091 10 27.51757812 C10.67289063 27.93265625 11.34578125 28.34773438 12.0390625 28.77539062 C14.92674953 30.86045769 16.96872093 32.57455583 19 35.51757812 C19.2044916 40.41488968 18.27754009 44.80458049 17 49.51757812 C18.08667969 48.83308594 18.08667969 48.83308594 19.1953125 48.13476562 C27.12870143 43.41704367 27.12870143 43.41704367 31.25 43.89257812 C32.1575 44.42882812 33.065 44.96507813 34 45.51757812 C34.63164063 45.86304688 35.26328125 46.20851562 35.9140625 46.56445312 C37.63192064 47.5089329 39.31899045 48.5089724 41 49.51757812 C40.75121094 48.59976563 40.50242187 47.68195312 40.24609375 46.73632812 C39.40019933 42.84603106 38.83359968 39.50265255 39 35.51757812 C41.44781372 31.97105888 44.35352302 29.76693749 48 27.51757812 C44.78817851 25.61149715 42.46117397 25.29491565 38.75 25.39257812 C37.41195312 25.41964844 37.41195312 25.41964844 36.046875 25.44726562 C35.37140625 25.47046875 34.6959375 25.49367188 34 25.51757812 C33.896875 24.83695313 33.79375 24.15632813 33.6875 23.45507812 C32.85274981 19.88841824 31.50527246 16.85535618 30 13.51757812 C29.34 13.51757812 28.68 13.51757812 28 13.51757812 Z " fill="#FFFFFF" transform="translate(19,11.482421875)"/>
</svg>

