<?xml version="1.0" standalone="no"?>
<!DOCTYPE svg PUBLIC "-//W3C//DTD SVG 20010904//EN"
 "http://www.w3.org/TR/2001/REC-SVG-20010904/DTD/svg10.dtd">
<svg version="1.0" xmlns="http://www.w3.org/2000/svg"
 width="100.000000pt" height="100.000000pt" viewBox="0 0 100.000000 100.000000"
 preserveAspectRatio="xMidYMid meet">
<metadata>
Created by potrace 1.16, written by Peter Selinger 2001-2019
</metadata>
<g transform="translate(0.000000,100.000000) scale(0.100000,-0.100000)"
fill="#currentColor" stroke="none">
<path d="M521 895 c-57 -35 -108 -70 -112 -77 -13 -20 -11 -74 4 -86 6 -5 22
-12 35 -14 13 -1 32 -17 42 -34 l20 -30 -206 -114 c-249 -137 -264 -148 -264
-201 0 -51 27 -79 78 -79 31 0 68 20 222 123 102 68 197 131 211 141 26 17 27
17 48 -19 11 -20 21 -51 21 -69 0 -79 55 -76 202 12 109 66 113 69 116 106 4
45 -11 66 -47 66 -24 0 -36 15 -99 119 -57 94 -72 127 -72 158 0 86 -56 85
-199 -2z m223 -177 c36 -59 66 -111 66 -115 0 -9 -149 -97 -154 -92 -3 4 -127
210 -133 221 -3 6 148 101 153 95 1 -1 31 -50 68 -109z m-203 -133 c0 -4 -89
-65 -198 -138 -205 -136 -248 -154 -248 -107 0 22 25 39 220 147 195 108 227
122 226 98z"/>
<path d="M492 148 c-7 -7 -12 -34 -12 -60 l0 -48 240 0 240 0 0 48 c0 26 -5
53 -12 60 -17 17 -439 17 -456 0z m416 -40 c7 -7 12 -16 12 -20 0 -4 -90 -8
-200 -8 -110 0 -200 4 -200 8 0 4 5 13 12 20 17 17 359 17 376 0z"/>
</g>
</svg>
