<?xml version="1.0" standalone="no"?>
<!DOCTYPE svg PUBLIC "-//W3C//DTD SVG 20010904//EN"
 "http://www.w3.org/TR/2001/REC-SVG-20010904/DTD/svg10.dtd">
<svg version="1.0" xmlns="http://www.w3.org/2000/svg"
 width="100.000000pt" height="100.000000pt" viewBox="0 0 100.000000 100.000000"
 preserveAspectRatio="xMidYMid meet">
<metadata>
Created by potrace 1.16, written by Peter Selinger 2001-2019
</metadata>
<g transform="translate(0.000000,100.000000) scale(0.100000,-0.100000)"
fill="#currentColor" stroke="none">
<path d="M78 869 c-17 -9 -18 -38 -18 -367 0 -265 3 -361 12 -370 17 -17 839
-17 856 0 9 9 12 105 12 370 0 343 -1 358 -19 368 -27 14 -819 13 -843 -1z
m820 -371 l2 -338 -400 0 -400 0 0 260 0 260 325 0 c318 0 325 0 325 20 0 20
-7 20 -325 20 l-325 0 0 53 c0 30 3 57 7 60 4 4 182 6 397 5 l391 -3 3 -337z"/>
<path d="M792 477 c-43 -44 -59 -53 -85 -52 -41 1 -95 33 -99 58 -7 49 -83 48
-94 -1 -10 -41 -73 -102 -105 -102 -15 0 -30 -4 -33 -9 -9 -15 -84 19 -101 45
-28 43 -95 19 -95 -32 0 -11 -13 -33 -30 -49 -17 -16 -30 -35 -30 -42 0 -23
35 -14 64 16 34 36 90 47 139 26 19 -8 37 -24 40 -35 5 -18 12 -21 44 -18 34
3 39 7 49 38 15 45 78 100 115 100 38 0 93 -34 99 -62 8 -34 54 -47 80 -23 11
10 20 28 20 39 0 13 23 44 55 76 30 30 55 60 55 67 0 28 -38 10 -88 -40z"/>
</g>
</svg>
