<?xml version="1.0" standalone="no"?>
<!DOCTYPE svg PUBLIC "-//W3C//DTD SVG 20010904//EN"
 "http://www.w3.org/TR/2001/REC-SVG-20010904/DTD/svg10.dtd">
<svg version="1.0" xmlns="http://www.w3.org/2000/svg"
 width="100.000000pt" height="100.000000pt" viewBox="0 0 100.000000 100.000000"
 preserveAspectRatio="xMidYMid meet">
<metadata>
Created by potrace 1.16, written by Peter Selinger 2001-2019
</metadata>
<g transform="translate(0.000000,100.000000) scale(0.100000,-0.100000)"
fill="#F9F9F9" stroke="none">
<path d="M114 846 l-34 -34 0 -291 0 -291 29 -32 29 -33 234 0 c226 0 233 1
233 20 0 19 -8 20 -220 25 -121 4 -221 7 -222 8 -1 1 -9 9 -17 18 -14 13 -16
53 -16 285 0 256 1 270 20 289 19 19 33 20 350 20 317 0 331 -1 350 -20 11
-11 20 -29 20 -40 0 -15 7 -20 25 -20 40 0 35 52 -9 96 l-34 34 -352 0 -352 0
-34 -34z"/>
<path d="M164 695 c-3 -8 -3 -19 1 -25 4 -7 123 -10 356 -10 l349 0 0 -134 0
-133 -109 -108 c-101 -99 -111 -112 -135 -180 -14 -40 -26 -80 -26 -89 0 -22
34 -20 106 4 51 18 74 36 177 138 84 84 117 123 117 141 0 14 -16 39 -40 63
l-40 40 0 154 0 154 -375 0 c-319 0 -376 -2 -381 -15z m771 -375 c17 -19 16
-22 -71 -110 l-88 -90 -25 25 -26 25 85 85 c47 47 90 85 96 85 6 0 19 -9 29
-20z"/>
<path d="M377 584 c-4 -4 -7 -16 -7 -26 0 -17 12 -18 181 -18 l180 0 -3 23
c-3 22 -5 22 -174 25 -93 1 -173 -1 -177 -4z"/>
<path d="M373 444 c-11 -30 13 -35 183 -32 167 3 169 3 172 26 l3 22 -176 0
c-150 0 -176 -2 -182 -16z"/>
<path d="M377 334 c-4 -4 -7 -16 -7 -26 0 -17 12 -18 181 -18 l180 0 -3 23
c-3 22 -5 22 -174 25 -93 1 -173 -1 -177 -4z"/>
</g>
</svg>
