<?xml version="1.0" standalone="no"?>
<!DOCTYPE svg PUBLIC "-//W3C//DTD SVG 20010904//EN"
 "http://www.w3.org/TR/2001/REC-SVG-20010904/DTD/svg10.dtd">
<svg version="1.0" xmlns="http://www.w3.org/2000/svg"
 width="100.000000pt" height="100.000000pt" viewBox="0 0 100.000000 100.000000"
 preserveAspectRatio="xMidYMid meet">
<metadata>
Created by potrace 1.16, written by Peter Selinger 2001-2019
</metadata>
<g transform="translate(0.000000,100.000000) scale(0.100000,-0.100000)"
fill="#F9F9F9" stroke="none">
<path d="M0 625 l0 -235 110 0 109 0 3 -123 3 -122 388 -3 387 -2 0 235 0 235
-110 0 -109 0 -3 123 -3 122 -387 3 -388 2 0 -235z m655 162 c11 -18 35 -39
52 -47 l33 -15 0 -96 0 -95 -35 -17 c-21 -10 -42 -31 -52 -52 l-17 -35 -251 0
-251 0 -17 35 c-10 21 -31 42 -52 52 l-35 17 0 98 c0 89 2 98 19 98 21 0 67
43 76 71 6 18 19 19 258 19 l252 -1 20 -32z m315 -462 l0 -145 -355 0 -355 0
0 105 0 105 258 2 257 3 3 38 3 37 95 0 94 0 0 -145z"/>
<path d="M320 747 c-60 -30 -85 -112 -56 -182 38 -91 182 -99 236 -13 17 26
20 45 17 87 -3 47 -9 59 -40 88 -31 28 -44 33 -84 33 -27 0 -59 -6 -73 -13z
m131 -56 c21 -21 29 -39 29 -64 0 -96 -131 -132 -175 -48 -23 45 -19 79 14
112 41 40 91 40 132 0z"/>
<path d="M710 275 l0 -56 108 3 107 3 3 53 3 52 -110 0 -111 0 0 -55z"/>
</g>
</svg>
