<?xml version="1.0" standalone="no"?>
<!DOCTYPE svg PUBLIC "-//W3C//DTD SVG 20010904//EN"
 "http://www.w3.org/TR/2001/REC-SVG-20010904/DTD/svg10.dtd">
<svg version="1.0" xmlns="http://www.w3.org/2000/svg"
 width="100.000000pt" height="100.000000pt" viewBox="0 0 100.000000 100.000000"
 preserveAspectRatio="xMidYMid meet">
<metadata>
Created by potrace 1.16, written by Peter Selinger 2001-2019
</metadata>
<g transform="translate(0.000000,100.000000) scale(0.100000,-0.100000)"
fill="#F9F9F9" stroke="none">
<path d="M220 978 c-61 -42 -70 -74 -70 -245 l0 -152 -72 -3 -73 -3 -3 -145
c-3 -169 -3 -170 90 -170 l58 0 0 -73 c0 -84 19 -130 70 -164 32 -23 39 -23
318 -23 325 0 332 2 371 84 20 40 21 59 21 329 0 221 -3 295 -14 320 -7 18
-68 85 -134 150 l-120 117 -205 0 c-195 0 -205 -1 -237 -22z m378 -70 c8 -8
12 -46 12 -103 0 -57 4 -95 12 -103 8 -8 46 -12 103 -12 57 0 95 -4 103 -12 9
-9 12 -84 12 -278 0 -254 -1 -267 -20 -288 -20 -22 -26 -22 -282 -22 -310 0
-298 -4 -298 102 l0 68 208 0 c268 0 252 -10 252 156 0 69 -5 134 -10 145 -10
18 -23 19 -230 19 l-220 0 0 149 0 150 26 20 c24 19 40 21 173 21 101 0 151
-4 159 -12z m-407 -389 c61 -32 26 -129 -46 -129 -11 0 -15 -12 -15 -40 0 -36
-2 -40 -25 -40 l-25 0 0 110 0 110 46 0 c25 0 54 -5 65 -11z m210 1 c25 -14
49 -62 49 -97 0 -38 -34 -91 -67 -104 -15 -5 -45 -9 -67 -7 l-41 3 -3 108 -3
107 56 0 c31 0 65 -5 76 -10z m229 -10 c0 -17 -7 -20 -40 -20 -36 0 -40 -2
-40 -25 0 -22 4 -25 35 -25 28 0 35 -4 35 -20 0 -16 -7 -20 -35 -20 -35 0 -35
0 -35 -45 0 -41 -2 -45 -25 -45 l-25 0 0 110 0 110 65 0 c58 0 65 -2 65 -20z"/>
</g>
</svg>
