<?xml version="1.0" standalone="no"?>
<!DOCTYPE svg PUBLIC "-//W3C//DTD SVG 20010904//EN"
 "http://www.w3.org/TR/2001/REC-SVG-20010904/DTD/svg10.dtd">
<svg version="1.0" xmlns="http://www.w3.org/2000/svg"
 width="100.000000pt" height="100.000000pt" viewBox="0 0 100.000000 100.000000"
 preserveAspectRatio="xMidYMid meet">
<metadata>
Created by potrace 1.16, written by Peter Selinger 2001-2019
</metadata>
<g transform="translate(0.000000,100.000000) scale(0.100000,-0.100000)"
fill="#F9F9F9" stroke="none">
<path d="M12 928 c-9 -9 -12 -120 -12 -440 l0 -428 500 0 500 0 0 428 c0 320
-3 431 -12 440 -17 17 -959 17 -976 0z m936 -40 c7 -7 12 -29 12 -50 l0 -38
-460 0 -460 0 0 38 c0 21 5 43 12 50 17 17 879 17 896 0z m12 -458 l0 -330
-460 0 -460 0 0 330 0 330 460 0 460 0 0 -330z"/>
<path d="M200 640 c0 -20 7 -20 300 -20 293 0 300 0 300 20 0 20 -7 20 -300
20 -293 0 -300 0 -300 -20z"/>
<path d="M340 480 c0 -19 7 -20 230 -20 223 0 230 1 230 20 0 19 -7 20 -230
20 -223 0 -230 -1 -230 -20z"/>
<path d="M340 360 c0 -19 7 -20 230 -20 223 0 230 1 230 20 0 19 -7 20 -230
20 -223 0 -230 -1 -230 -20z"/>
<path d="M340 240 c0 -19 7 -20 230 -20 223 0 230 1 230 20 0 19 -7 20 -230
20 -223 0 -230 -1 -230 -20z"/>
</g>
</svg>
