<?xml version="1.0" encoding="UTF-8"?>
<svg version="1.1" xmlns="http://www.w3.org/2000/svg" width="80" height="80">
<path d="M0 0 C1.12279896 0.67629054 2.22644652 1.38540297 3.30859375 2.125 C5.35254332 3.38246338 7.3221274 4.0080276 9.6171875 4.69921875 C13.69713598 5.97551033 16.67520413 7.58011914 20.0546875 10.19921875 C21.202956 12.49575575 21.17029925 13.78235042 21.15234375 16.33203125 C21.14912109 17.13769531 21.14589844 17.94335938 21.14257812 18.7734375 C21.13000977 20.03607422 21.13000977 20.03607422 21.1171875 21.32421875 C21.11267578 22.17371094 21.10816406 23.02320312 21.10351562 23.8984375 C21.09171624 25.99872784 21.07378056 28.09898205 21.0546875 30.19921875 C20.3946875 30.19921875 19.7346875 30.19921875 19.0546875 30.19921875 C18.8690625 31.59140625 18.8690625 31.59140625 18.6796875 33.01171875 C18.0546875 36.19921875 18.0546875 36.19921875 16.0546875 39.19921875 C16.89773437 39.66972656 17.74078125 40.14023437 18.609375 40.625 C19.70507812 41.24761719 20.80078125 41.87023438 21.9296875 42.51171875 C23.02023438 43.12660156 24.11078125 43.74148437 25.234375 44.375 C28.0546875 46.19921875 28.0546875 46.19921875 30.0546875 49.19921875 C30.31229029 51.89374396 30.14368803 54.4847025 30.0546875 57.19921875 C27.0846875 57.19921875 24.1146875 57.19921875 21.0546875 57.19921875 C21.0546875 58.51921875 21.0546875 59.83921875 21.0546875 61.19921875 C3.2346875 61.19921875 -14.5853125 61.19921875 -32.9453125 61.19921875 C-32.9453125 59.87921875 -32.9453125 58.55921875 -32.9453125 57.19921875 C-35.9153125 57.19921875 -38.8853125 57.19921875 -41.9453125 57.19921875 C-42.23523368 53.96176555 -42.44691372 51.36891155 -41.9453125 48.19921875 C-38.03710505 43.80248537 -33.23656985 41.66239028 -27.9453125 39.19921875 C-28.4403125 38.45671875 -28.9353125 37.71421875 -29.4453125 36.94921875 C-30.9453125 34.19921875 -30.9453125 34.19921875 -30.9453125 30.19921875 C-31.6053125 30.19921875 -32.2653125 30.19921875 -32.9453125 30.19921875 C-32.98269531 29.43996094 -33.02007812 28.68070313 -33.05859375 27.8984375 C-33.12433594 26.90457031 -33.19007812 25.91070312 -33.2578125 24.88671875 C-33.31582031 23.90058594 -33.37382813 22.91445313 -33.43359375 21.8984375 C-33.99154063 18.95537418 -34.63071382 18.01738876 -36.9453125 16.19921875 C-35.02831839 10.19331699 -31.27092319 8.15087078 -25.9453125 5.19921875 C-23.96174767 4.48513541 -21.96215813 3.81304133 -19.9453125 3.19921875 C-18.8934375 2.49796875 -17.8415625 1.79671875 -16.7578125 1.07421875 C-11.78848607 -1.85669218 -5.34947934 -2.20209491 0 0 Z M-17.9453125 6.19921875 C-18.6053125 6.61171875 -19.2653125 7.02421875 -19.9453125 7.44921875 C-21.28328686 9.79067388 -20.76292156 10.80735145 -20.1328125 13.38671875 C-19.7409375 14.64484375 -19.3490625 15.90296875 -18.9453125 17.19921875 C-18.25566406 16.5753125 -17.56601562 15.95140625 -16.85546875 15.30859375 C-13.6355777 12.97471299 -11.25319237 12.25648222 -7.3828125 11.44921875 C-6.26777344 11.206875 -5.15273438 10.96453125 -4.00390625 10.71484375 C2.24734805 9.66099245 2.24734805 9.66099245 5.3046875 11.69921875 C5.8821875 12.19421875 6.4596875 12.68921875 7.0546875 13.19921875 C6.94127216 10.79044618 6.94127216 10.79044618 6.0546875 8.19921875 C3.74988462 6.4994985 3.74988462 6.4994985 1.0546875 5.19921875 C0.4771875 4.64234375 -0.1003125 4.08546875 -0.6953125 3.51171875 C-6.75544734 -0.02335991 -12.84681479 1.95047066 -17.9453125 6.19921875 Z M10.0546875 8.19921875 C10.0546875 10.17921875 10.0546875 12.15921875 10.0546875 14.19921875 C12.0346875 13.53921875 14.0146875 12.87921875 16.0546875 12.19921875 C13.34465457 9.52590162 13.34465457 9.52590162 10.0546875 8.19921875 Z M-26.9453125 9.19921875 C-29.64463231 10.70711354 -29.64463231 10.70711354 -31.9453125 13.19921875 C-31.8817046 16.89976284 -31.8817046 16.89976284 -30.9453125 20.19921875 C-30.11 19.51859375 -30.11 19.51859375 -29.2578125 18.82421875 C-26.89217811 17.16188107 -24.65515592 16.17777332 -21.9453125 15.19921875 C-23.07836242 11.800069 -24.07049725 11.14667424 -26.9453125 9.19921875 Z M-5.9453125 13.38671875 C-6.9765625 13.64839844 -8.0078125 13.91007812 -9.0703125 14.1796875 C-11.91548469 15.18864122 -13.73802738 16.15899879 -15.9453125 18.19921875 C-17.51968718 21.97771799 -18.75081562 25.17114999 -17.17578125 29.13671875 C-16.83160156 29.81734375 -16.48742187 30.49796875 -16.1328125 31.19921875 C-15.79636719 31.87984375 -15.45992187 32.56046875 -15.11328125 33.26171875 C-12.98235664 36.79663048 -11.63132107 38.02136468 -7.5703125 39.07421875 C-3.47808633 39.21533 -2.09191629 38.73398291 1.0546875 36.19921875 C4.24239826 32.65731791 6.0546875 28.99516372 6.0546875 24.19921875 C5.84613439 22.50609683 5.59196354 20.8182742 5.3046875 19.13671875 C5.16546875 18.25886719 5.02625 17.38101562 4.8828125 16.4765625 C4.24327378 14.11016838 4.24327378 14.11016838 2.3515625 12.81640625 C-0.77721032 11.97568158 -2.82838674 12.55683727 -5.9453125 13.38671875 Z M13.0546875 16.19921875 C12.0646875 16.85921875 11.0746875 17.51921875 10.0546875 18.19921875 C9.54732977 20.59426266 9.54732977 20.59426266 9.4921875 23.26171875 C9.36328125 25.984375 9.36328125 25.984375 9.0546875 28.19921875 C8.0646875 28.69421875 8.0646875 28.69421875 7.0546875 29.19921875 C6.36739496 31.3176816 6.36739496 31.3176816 5.9296875 33.76171875 C5.76210938 34.58800781 5.59453125 35.41429688 5.421875 36.265625 C5.30070312 36.90371094 5.17953125 37.54179688 5.0546875 38.19921875 C9.0330922 38.66182395 10.57750228 38.56795279 13.8046875 36.07421875 C16.2721363 32.92136751 17.38418153 31.1477539 18.0546875 27.19921875 C17.62161029 23.80083642 16.90668746 20.51546473 16.0546875 17.19921875 C15.0646875 16.86921875 14.0746875 16.53921875 13.0546875 16.19921875 Z M-27.9453125 21.19921875 C-29.56947929 24.51251901 -30.39454113 26.75228468 -29.2734375 30.36328125 C-27.53028223 34.05072509 -26.41261645 35.88768278 -22.9453125 38.19921875 C-19.82009417 38.36621107 -19.82009417 38.36621107 -16.9453125 38.19921875 C-17.22658671 36.71804074 -17.52064982 35.23928626 -17.8203125 33.76171875 C-17.98273437 32.93800781 -18.14515625 32.11429688 -18.3125 31.265625 C-18.62574219 30.24275391 -18.62574219 30.24275391 -18.9453125 29.19921875 C-19.6053125 28.86921875 -20.2653125 28.53921875 -20.9453125 28.19921875 C-21.359375 25.9140625 -21.359375 25.9140625 -21.5703125 23.13671875 C-21.64507812 22.21761719 -21.71984375 21.29851563 -21.796875 20.3515625 C-21.84585937 19.64128906 -21.89484375 18.93101563 -21.9453125 18.19921875 C-24.41969854 18.19921875 -26.06757048 19.77946259 -27.9453125 21.19921875 Z M-22.9453125 41.19921875 C-21.9553125 42.18921875 -20.9653125 43.17921875 -19.9453125 44.19921875 C-18.9553125 43.20921875 -17.9653125 42.21921875 -16.9453125 41.19921875 C-18.9253125 41.19921875 -20.9053125 41.19921875 -22.9453125 41.19921875 Z M-10.9453125 41.19921875 C-9.9553125 42.84921875 -8.9653125 44.49921875 -7.9453125 46.19921875 C-5.50051171 46.01093103 -5.50051171 46.01093103 -2.9453125 45.19921875 C-2.2853125 43.87921875 -1.6253125 42.55921875 -0.9453125 41.19921875 C-4.2453125 41.19921875 -7.5453125 41.19921875 -10.9453125 41.19921875 Z M5.0546875 41.19921875 C6.0446875 42.18921875 7.0346875 43.17921875 8.0546875 44.19921875 C9.0446875 43.20921875 10.0346875 42.21921875 11.0546875 41.19921875 C9.0746875 41.19921875 7.0946875 41.19921875 5.0546875 41.19921875 Z M-26.9453125 42.19921875 C-27.6053125 43.51921875 -28.2653125 44.83921875 -28.9453125 46.19921875 C-27.9553125 46.52921875 -26.9653125 46.85921875 -25.9453125 47.19921875 C-25.2853125 46.53921875 -24.6253125 45.87921875 -23.9453125 45.19921875 C-24.9353125 44.20921875 -25.9253125 43.21921875 -26.9453125 42.19921875 Z M-17.9453125 46.19921875 C-17.5946875 47.10671875 -17.2440625 48.01421875 -16.8828125 48.94921875 C-15.9453125 52.19921875 -15.9453125 52.19921875 -16.5078125 54.38671875 C-16.6521875 54.98484375 -16.7965625 55.58296875 -16.9453125 56.19921875 C-15.90571731 58.0728127 -15.90571731 58.0728127 -13.9453125 59.19921875 C-11.31960546 59.44991788 -11.31960546 59.44991788 -8.9453125 59.19921875 C-7.56465897 54.2076252 -7.81258367 51.82459689 -10.3828125 47.26171875 C-11.21924783 45.89652866 -12.06774735 44.53834065 -12.9453125 43.19921875 C-14.91354136 43.19921875 -16.45059795 45.04202039 -17.9453125 46.19921875 Z M1.0546875 43.19921875 C-3.11877202 49.23381652 -3.11877202 49.23381652 -3.7578125 56.26171875 C-3.4896875 57.23109375 -3.2215625 58.20046875 -2.9453125 59.19921875 C-0.14168487 59.42653991 1.51655267 59.54003747 3.9296875 58.01171875 C5.50976403 55.46603989 4.66951945 54.06843453 4.0546875 51.19921875 C4.9921875 48.38671875 4.9921875 48.38671875 6.0546875 46.19921875 C4.4046875 45.20921875 2.7546875 44.21921875 1.0546875 43.19921875 Z M14.0546875 43.19921875 C13.0646875 44.68421875 13.0646875 44.68421875 12.0546875 46.19921875 C13.3746875 46.52921875 14.6946875 46.85921875 16.0546875 47.19921875 C16.0546875 45.87921875 16.0546875 44.55921875 16.0546875 43.19921875 C15.3946875 43.19921875 14.7346875 43.19921875 14.0546875 43.19921875 Z M-38.9453125 50.19921875 C-39.82474654 52.83382823 -39.82474654 52.83382823 -39.9453125 55.19921875 C-37.6353125 55.19921875 -35.3253125 55.19921875 -32.9453125 55.19921875 C-31.9553125 53.21921875 -30.9653125 51.23921875 -29.9453125 49.19921875 C-30.6053125 48.20921875 -31.2653125 47.21921875 -31.9453125 46.19921875 C-35.20074278 46.19921875 -36.65507698 48.02643121 -38.9453125 50.19921875 Z M20.0546875 46.19921875 C18.74609101 47.89634082 18.74609101 47.89634082 18.0546875 50.19921875 C18.90214384 53.05623582 18.90214384 53.05623582 21.0546875 55.19921875 C24.18103959 55.61668483 24.18103959 55.61668483 27.0546875 55.19921875 C27.47339303 52.86849996 27.47339303 52.86849996 27.0546875 50.19921875 C24.05641652 47.09416623 24.05641652 47.09416623 20.0546875 46.19921875 Z M-26.5703125 50.88671875 C-27.20195312 51.38558594 -27.83359375 51.88445313 -28.484375 52.3984375 C-30.47033057 54.4598886 -30.47033057 54.4598886 -29.9453125 59.19921875 C-25.9853125 59.19921875 -22.0253125 59.19921875 -17.9453125 59.19921875 C-18.6053125 57.54921875 -19.2653125 55.89921875 -19.9453125 54.19921875 C-19.6153125 53.20921875 -19.2853125 52.21921875 -18.9453125 51.19921875 C-19.6053125 50.20921875 -20.2653125 49.21921875 -20.9453125 48.19921875 C-23.64038016 48.19921875 -24.50195907 49.19713786 -26.5703125 50.88671875 Z M9.0546875 48.19921875 C7.28100346 51.03980705 7.28100346 51.03980705 7.5546875 54.26171875 C7.7196875 54.90109375 7.8846875 55.54046875 8.0546875 56.19921875 C7.3946875 57.18921875 6.7346875 58.17921875 6.0546875 59.19921875 C10.0146875 59.19921875 13.9746875 59.19921875 18.0546875 59.19921875 C18.57970557 54.4598886 18.57970557 54.4598886 16.59375 52.3984375 C15.96210937 51.89957031 15.33046875 51.40070312 14.6796875 50.88671875 C14.05320312 50.37496094 13.42671875 49.86320312 12.78125 49.3359375 C11.12080259 48.01592071 11.12080259 48.01592071 9.0546875 48.19921875 Z " fill="#FFFFFF" transform="translate(45.9453125,9.80078125)"/>
<path d="M0 0 C0.99 0 1.98 0 3 0 C3 0.99 3 1.98 3 3 C2.01 3 1.02 3 0 3 C0 2.01 0 1.02 0 0 Z " fill="#FFFFFF" transform="translate(57,35)"/>
<path d="M0 0 C0.99 0 1.98 0 3 0 C3 0.99 3 1.98 3 3 C2.01 3 1.02 3 0 3 C0 2.01 0 1.02 0 0 Z " fill="#FFFFFF" transform="translate(20,35)"/>
<path d="M0 0 C0.99 0 1.98 0 3 0 C3 0.99 3 1.98 3 3 C2.01 3 1.02 3 0 3 C0 2.01 0 1.02 0 0 Z " fill="#FFFFFF" transform="translate(44,33)"/>
<path d="M0 0 C0.99 0 1.98 0 3 0 C3 0.99 3 1.98 3 3 C2.01 3 1.02 3 0 3 C0 2.01 0 1.02 0 0 Z " fill="#FFFFFF" transform="translate(33,33)"/>
</svg>
