<svg xmlns="http://www.w3.org/2000/svg" xmlns:xlink="http://www.w3.org/1999/xlink" width="500" zoomAndPan="magnify" viewBox="0 0 375 374.999991" height="500" preserveAspectRatio="xMidYMid meet" version="1.2"><defs><clipPath id="09c7e121ef"><path d="M 114.5625 208.152344 L 172.582031 208.152344 L 172.582031 261.390625 L 114.5625 261.390625 Z M 114.5625 208.152344 "/></clipPath><clipPath id="019545086e"><path d="M 143.46875 208.152344 C 127.503906 208.152344 114.5625 220.070312 114.5625 234.769531 C 114.5625 249.472656 127.503906 261.390625 143.46875 261.390625 C 159.4375 261.390625 172.378906 249.472656 172.378906 234.769531 C 172.378906 220.070312 159.4375 208.152344 143.46875 208.152344 Z M 143.46875 208.152344 "/></clipPath><clipPath id="2bbab826ff"><path d="M 202.742188 208.152344 L 260.765625 208.152344 L 260.765625 261.390625 L 202.742188 261.390625 Z M 202.742188 208.152344 "/></clipPath><clipPath id="09ec4b1f53"><path d="M 231.652344 208.152344 C 215.6875 208.152344 202.742188 220.070312 202.742188 234.769531 C 202.742188 249.472656 215.6875 261.390625 231.652344 261.390625 C 247.621094 261.390625 260.5625 249.472656 260.5625 234.769531 C 260.5625 220.070312 247.621094 208.152344 231.652344 208.152344 Z M 231.652344 208.152344 "/></clipPath><clipPath id="97d28237ad"><path d="M 85.433594 58.683594 L 133.675781 58.683594 L 133.675781 106.925781 L 85.433594 106.925781 Z M 85.433594 58.683594 "/></clipPath><clipPath id="79462a6122"><path d="M 109.554688 58.683594 C 96.230469 58.683594 85.433594 69.484375 85.433594 82.804688 C 85.433594 96.128906 96.230469 106.925781 109.554688 106.925781 C 122.875 106.925781 133.675781 96.128906 133.675781 82.804688 C 133.675781 69.484375 122.875 58.683594 109.554688 58.683594 Z M 109.554688 58.683594 "/></clipPath></defs><g id="ce8cfb3800"><g style="fill:#b71a4a;fill-opacity:1;"><g transform="translate(109.554439, 228.853463)"><path style="stroke:none" d="M 24.285156 -73.578125 L 24.285156 0 L 14.464844 0 L 14.464844 -9.820312 L 53.125 -9.820312 L 53.125 0 L 43.304688 0 L 43.304688 -72.578125 C 43.304688 -78.824219 44.824219 -84.578125 47.863281 -89.839844 C 50.875 -95.046875 54.976562 -99.207031 60.167969 -102.324219 C 65.464844 -105.503906 71.429688 -107.089844 78.066406 -107.089844 C 84.535156 -107.089844 90.417969 -105.503906 95.714844 -102.324219 C 100.90625 -99.207031 105.007812 -95.046875 108.019531 -89.839844 C 111.058594 -84.578125 112.578125 -78.824219 112.578125 -72.578125 L 112.578125 0 L 102.757812 0 L 102.757812 -9.820312 L 141.417969 -9.820312 L 141.417969 0 L 131.597656 0 L 131.597656 -73.578125 C 131.597656 -82.464844 129.539062 -90.472656 125.429688 -97.601562 C 121.355469 -104.660156 115.425781 -110.328125 107.636719 -114.601562 C 99.714844 -118.949219 89.9375 -121.121094 78.316406 -121.121094 C 66.832031 -121.121094 57.039062 -118.9375 48.929688 -114.566406 C 40.960938 -110.269531 34.863281 -104.574219 30.632812 -97.480469 C 26.402344 -90.382812 24.285156 -82.414062 24.285156 -73.578125 Z M 4.644531 -73.578125 C 4.644531 -86.023438 7.683594 -97.34375 13.761719 -107.539062 C 19.84375 -117.734375 28.457031 -125.84375 39.609375 -131.855469 C 50.625 -137.792969 63.527344 -140.761719 78.316406 -140.761719 C 93.296875 -140.761719 106.21875 -137.78125 117.085938 -131.820312 C 128.085938 -125.785156 136.539062 -117.648438 142.441406 -107.417969 C 148.304688 -97.25 151.238281 -85.972656 151.238281 -73.578125 L 151.238281 9.820312 L 92.9375 9.820312 L 92.9375 -72.578125 C 92.9375 -75.3125 92.296875 -77.789062 91.011719 -80.011719 C 89.699219 -82.285156 87.898438 -84.109375 85.609375 -85.484375 C 83.421875 -86.792969 80.910156 -87.449219 78.066406 -87.449219 C 75.058594 -87.449219 72.460938 -86.792969 70.273438 -85.484375 C 67.984375 -84.109375 66.183594 -82.285156 64.871094 -80.011719 C 63.585938 -77.789062 62.945312 -75.3125 62.945312 -72.578125 L 62.945312 9.820312 L 4.644531 9.820312 Z M 4.644531 -73.578125 "/></g></g><g style="fill:#b71a4a;fill-opacity:1;"><g transform="translate(109.554439, 228.853463)"><path style="stroke:none" d="M 14.46875 0 L 14.46875 -73.578125 C 14.46875 -84.210938 17.039062 -93.851562 22.1875 -102.5 C 27.34375 -111.144531 34.703125 -118.046875 44.265625 -123.203125 C 53.828125 -128.359375 65.175781 -130.9375 78.3125 -130.9375 C 91.613281 -130.9375 102.960938 -128.359375 112.359375 -123.203125 C 121.753906 -118.046875 128.941406 -111.144531 133.921875 -102.5 C 138.910156 -93.851562 141.40625 -84.210938 141.40625 -73.578125 L 141.40625 0 L 102.75 0 L 102.75 -72.578125 C 102.75 -77.066406 101.664062 -81.179688 99.5 -84.921875 C 97.34375 -88.660156 94.394531 -91.648438 90.65625 -93.890625 C 86.914062 -96.140625 82.71875 -97.265625 78.0625 -97.265625 C 73.238281 -97.265625 68.957031 -96.140625 65.21875 -93.890625 C 61.476562 -91.648438 58.523438 -88.660156 56.359375 -84.921875 C 54.203125 -81.179688 53.125 -77.066406 53.125 -72.578125 L 53.125 0 Z M 14.46875 0 "/></g></g><g clip-rule="nonzero" clip-path="url(#09c7e121ef)"><g clip-rule="nonzero" clip-path="url(#019545086e)"><path style=" stroke:none;fill-rule:nonzero;fill:#b71a4a;fill-opacity:1;" d="M 114.5625 208.152344 L 172.371094 208.152344 L 172.371094 261.390625 L 114.5625 261.390625 Z M 114.5625 208.152344 "/></g></g><g clip-rule="nonzero" clip-path="url(#2bbab826ff)"><g clip-rule="nonzero" clip-path="url(#09ec4b1f53)"><path style=" stroke:none;fill-rule:nonzero;fill:#b71a4a;fill-opacity:1;" d="M 202.742188 208.152344 L 260.554688 208.152344 L 260.554688 261.390625 L 202.742188 261.390625 Z M 202.742188 208.152344 "/></g></g><g clip-rule="nonzero" clip-path="url(#97d28237ad)"><g clip-rule="nonzero" clip-path="url(#79462a6122)"><path style=" stroke:none;fill-rule:nonzero;fill:#b71a4a;fill-opacity:1;" d="M 85.433594 58.683594 L 133.675781 58.683594 L 133.675781 106.925781 L 85.433594 106.925781 Z M 85.433594 58.683594 "/></g></g></g></svg>