<svg xmlns="http://www.w3.org/2000/svg" xmlns:xlink="http://www.w3.org/1999/xlink" width="500" zoomAndPan="magnify" viewBox="0 0 375 374.999991" height="500" preserveAspectRatio="xMidYMid meet" version="1.0"><defs><g/><clipPath id="c3659eeca5"><path d="M 38.660156 7.085938 L 336.410156 7.085938 L 336.410156 367.835938 L 38.660156 367.835938 Z M 38.660156 7.085938 " clip-rule="nonzero"/></clipPath><clipPath id="d57e710551"><path d="M 114.234375 82.460938 L 274.566406 82.460938 L 274.566406 237.054688 L 114.234375 237.054688 Z M 114.234375 82.460938 " clip-rule="nonzero"/></clipPath><clipPath id="14cb4cbe32"><path d="M 114.5625 208.152344 L 172.582031 208.152344 L 172.582031 261.390625 L 114.5625 261.390625 Z M 114.5625 208.152344 " clip-rule="nonzero"/></clipPath><clipPath id="c021ef6ebf"><path d="M 143.46875 208.152344 C 127.503906 208.152344 114.5625 220.070312 114.5625 234.769531 C 114.5625 249.472656 127.503906 261.390625 143.46875 261.390625 C 159.4375 261.390625 172.378906 249.472656 172.378906 234.769531 C 172.378906 220.070312 159.4375 208.152344 143.46875 208.152344 Z M 143.46875 208.152344 " clip-rule="nonzero"/></clipPath><clipPath id="a111c41605"><path d="M 202.742188 208.152344 L 260.765625 208.152344 L 260.765625 261.390625 L 202.742188 261.390625 Z M 202.742188 208.152344 " clip-rule="nonzero"/></clipPath><clipPath id="61e614ad8c"><path d="M 231.652344 208.152344 C 215.6875 208.152344 202.742188 220.070312 202.742188 234.769531 C 202.742188 249.472656 215.6875 261.390625 231.652344 261.390625 C 247.621094 261.390625 260.5625 249.472656 260.5625 234.769531 C 260.5625 220.070312 247.621094 208.152344 231.652344 208.152344 Z M 231.652344 208.152344 " clip-rule="nonzero"/></clipPath><clipPath id="713465e993"><path d="M 85.433594 58.683594 L 133.675781 58.683594 L 133.675781 106.925781 L 85.433594 106.925781 Z M 85.433594 58.683594 " clip-rule="nonzero"/></clipPath><clipPath id="d5865fbba4"><path d="M 109.554688 58.683594 C 96.230469 58.683594 85.433594 69.484375 85.433594 82.804688 C 85.433594 96.128906 96.230469 106.925781 109.554688 106.925781 C 122.875 106.925781 133.675781 96.128906 133.675781 82.804688 C 133.675781 69.484375 122.875 58.683594 109.554688 58.683594 Z M 109.554688 58.683594 " clip-rule="nonzero"/></clipPath></defs><rect x="-37.5" width="450" fill="#ffffff" y="-37.499999" height="449.999989" fill-opacity="1"/><rect x="-37.5" width="450" fill="#ffffff" y="-37.499999" height="449.999989" fill-opacity="1"/><g clip-path="url(#c3659eeca5)"><path fill="#ffffff" d="M 239.15625 164.324219 L 187.515625 215.964844 L 135.875 164.324219 C 121.851562 150.308594 121.851562 127.574219 135.875 113.550781 L 136.386719 113.035156 C 150.410156 99.019531 173.144531 99.019531 187.167969 113.035156 L 187.519531 113.390625 L 187.867188 113.035156 C 201.882812 99.019531 224.617188 99.019531 238.640625 113.035156 L 239.15625 113.550781 C 253.179688 127.574219 253.179688 150.308594 239.15625 164.324219 Z M 187.550781 7.082031 C 105.429688 7.082031 38.949219 73.570312 38.949219 155.691406 C 38.949219 237.734375 187.550781 367.921875 187.550781 367.921875 C 187.550781 367.921875 336.082031 237.734375 336.082031 155.691406 C 336.082031 73.570312 269.597656 7.082031 187.550781 7.082031 " fill-opacity="1" fill-rule="nonzero"/></g><g clip-path="url(#d57e710551)"><path fill="#ffffff" d="M 114.234375 82.460938 L 274.863281 82.460938 L 274.863281 237.054688 L 114.234375 237.054688 Z M 114.234375 82.460938 " fill-opacity="1" fill-rule="nonzero"/></g><path stroke-linecap="butt" transform="matrix(0.827628, 0, 0, 0.827628, 109.554439, -32.896532)" fill="none" stroke-linejoin="miter" d="M 17.510817 226.124074 L 17.510817 314.998206 L 64.156757 314.998206 L 64.156757 227.304028 C 64.156757 221.85736 65.454706 216.877955 68.055325 212.365811 C 70.703141 207.853667 74.280762 204.247728 78.797626 201.552713 C 83.309769 198.852978 88.482688 197.507831 94.3211 197.507831 C 99.96128 197.507831 105.035082 198.852978 109.547226 201.552713 C 114.05937 204.247728 117.618111 207.853667 120.214009 212.365811 C 122.866546 216.877955 124.188094 221.85736 124.188094 227.304028 L 124.188094 314.998206 L 170.834034 314.998206 L 170.834034 226.124074 C 170.834034 213.276735 167.818072 201.62823 161.786147 191.178558 C 155.801421 180.733605 147.11696 172.393691 135.742203 166.163534 C 124.409926 159.933377 110.698861 156.823018 94.613728 156.823018 C 78.769307 156.823018 65.062961 159.933377 53.485253 166.163534 C 41.959463 172.393691 33.081489 180.733605 26.856052 191.178558 C 20.625896 201.62823 17.510817 213.276735 17.510817 226.124074 Z M 17.510817 226.124074 " stroke="#3c2192" stroke-width="23.731943" stroke-opacity="1" stroke-miterlimit="4"/><g fill="#3c2192" fill-opacity="1"><g transform="translate(109.554439, 227.806172)"><g><path d="M 14.46875 0 L 14.46875 -73.578125 C 14.46875 -84.210938 17.039062 -93.851562 22.1875 -102.5 C 27.34375 -111.144531 34.703125 -118.046875 44.265625 -123.203125 C 53.828125 -128.359375 65.175781 -130.9375 78.3125 -130.9375 C 91.613281 -130.9375 102.960938 -128.359375 112.359375 -123.203125 C 121.753906 -118.046875 128.941406 -111.144531 133.921875 -102.5 C 138.910156 -93.851562 141.40625 -84.210938 141.40625 -73.578125 L 141.40625 0 L 102.75 0 L 102.75 -72.578125 C 102.75 -77.066406 101.664062 -81.179688 99.5 -84.921875 C 97.34375 -88.660156 94.394531 -91.648438 90.65625 -93.890625 C 86.914062 -96.140625 82.71875 -97.265625 78.0625 -97.265625 C 73.238281 -97.265625 68.957031 -96.140625 65.21875 -93.890625 C 61.476562 -91.648438 58.523438 -88.660156 56.359375 -84.921875 C 54.203125 -81.179688 53.125 -77.066406 53.125 -72.578125 L 53.125 0 Z M 14.46875 0 "/></g></g></g><g clip-path="url(#14cb4cbe32)"><g clip-path="url(#c021ef6ebf)"><path fill="#3c2192" d="M 114.5625 208.152344 L 172.371094 208.152344 L 172.371094 261.390625 L 114.5625 261.390625 Z M 114.5625 208.152344 " fill-opacity="1" fill-rule="nonzero"/></g></g><g clip-path="url(#a111c41605)"><g clip-path="url(#61e614ad8c)"><path fill="#3c2192" d="M 202.742188 208.152344 L 260.554688 208.152344 L 260.554688 261.390625 L 202.742188 261.390625 Z M 202.742188 208.152344 " fill-opacity="1" fill-rule="nonzero"/></g></g><g clip-path="url(#713465e993)"><g clip-path="url(#d5865fbba4)"><path fill="#3c2192" d="M 85.433594 58.683594 L 133.675781 58.683594 L 133.675781 106.925781 L 85.433594 106.925781 Z M 85.433594 58.683594 " fill-opacity="1" fill-rule="nonzero"/></g></g></svg>