<?xml version="1.0" encoding="UTF-8"?>
<svg version="1.1" xmlns="http://www.w3.org/2000/svg" width="1200" height="1200">
<path d="M0 0 C0.70962891 0.23058105 1.41925781 0.46116211 2.15039062 0.69873047 C19.19263898 6.36713047 35.25574466 14.79410897 50 25 C50.57411621 25.39155273 51.14823242 25.78310547 51.73974609 26.18652344 C60.62765412 32.26527453 68.93470867 38.87081301 77 46 C77.95132813 46.83917969 78.90265625 47.67835938 79.8828125 48.54296875 C92.4260857 59.8387502 104.69974514 71.59773788 115 85 C116.15628906 86.39605469 116.15628906 86.39605469 117.3359375 87.8203125 C145.72349018 122.8346125 154.45587352 165.83704225 154.01403427 209.90893936 C153.99140683 212.27701299 153.9777253 214.64499986 153.96633911 217.01315308 C153.93332002 223.73414684 153.89174826 230.45499805 153.82861328 237.17578125 C153.50312365 273.04494586 154.4875802 306.34963152 179 335 C179.75410156 335.98226563 180.50820313 336.96453125 181.28515625 337.9765625 C183.95732154 340.44291301 183.95732154 340.44291301 187.86328125 339.61328125 C189.35261037 339.20168973 190.83558998 338.76664273 192.3125 338.3125 C208.54332487 334.06604409 224.74228524 335.04664965 239.875 342.6875 C245.56934841 346.08187886 250.3187002 350.33475954 255 355 C255.63808594 355.61488281 256.27617188 356.22976563 256.93359375 356.86328125 C264.14520126 364.36399552 268.75313221 373.72488583 270 384 C271.64524411 393.13570334 278.26986193 397.66174984 285.05175781 403.34033203 C294.25451157 411.17997113 302.0143456 420.16854574 309 430 C309.40959961 430.57588867 309.81919922 431.15177734 310.24121094 431.74511719 C342.20601207 477.18454175 361.92248474 535.54103345 362.203125 591.29296875 C362.21013931 592.23393402 362.21715363 593.17489929 362.22438049 594.14437866 C362.24176118 597.15880184 362.24823121 600.17302858 362.25 603.1875 C362.25101212 604.7324263 362.25101212 604.7324263 362.25204468 606.30856323 C362.23367009 623.94696915 361.79500931 641.04480742 357.09627151 658.15806866 C353.69158388 670.85569436 353.28164819 682.99321091 353.328125 696.07421875 C353.31751474 698.30387039 353.30459096 700.53351208 353.28948975 702.76313782 C353.25567466 708.55722346 353.24989632 714.35097081 353.25140381 720.1451416 C353.24814491 728.36861873 353.20549905 736.59200723 353.16766357 744.81538391 C353.1476811 749.18130379 353.13831689 753.54704595 353.13751221 757.91300964 C353.13369506 759.88691208 353.12985134 761.86081447 353.12597656 763.8347168 C353.12912621 765.19107994 353.12912621 765.19107994 353.13233948 766.57484436 C353.11301586 772.77396829 353.11301586 772.77396829 352 775 C381.205 775.495 381.205 775.495 411 776 C411 784.58 411 793.16 411 802 C74.4 802 -262.2 802 -609 802 C-609 793.42 -609 784.84 -609 776 C-563.955 775.505 -563.955 775.505 -518 775 C-521.3 773.68 -524.6 772.36 -528 771 C-573.90972333 744.94916064 -601.71582669 690.66903619 -615.67822266 641.84790039 C-629.51787884 591.38619501 -627.52326781 536.47053772 -602 490 C-594.29681275 477.01695264 -585.08068708 465.39508166 -574.9375 454.25 C-574.46699219 453.73074951 -573.99648438 453.21149902 -573.51171875 452.67651367 C-560.57005631 438.69711834 -544.33369253 427.61754901 -528 418 C-527.0107251 417.40372803 -527.0107251 417.40372803 -526.00146484 416.79541016 C-476.37442153 387 -476.37442153 387 -456 387 C-456.33 386.34 -456.66 385.68 -457 385 C-458.81333695 366.79688678 -452.33983156 349.10322163 -440.93359375 335.08984375 C-438.04641244 331.96935486 -435.02452112 328.98682586 -432 326 C-433.1653125 325.98582031 -434.330625 325.97164063 -435.53125 325.95703125 C-469.08256843 325.15099357 -510.30153686 315.08862455 -535 291 C-535.72058594 290.31808594 -536.44117188 289.63617188 -537.18359375 288.93359375 C-547.6715327 278.1680912 -551.34016551 265.6749204 -551.3828125 250.99902344 C-550.78576024 216.33267644 -521.29766422 186.75439098 -498.1875 164.02734375 C-494.56457495 160.5339644 -490.73094849 157.3491319 -486.78515625 154.2265625 C-484.30984921 152.24770554 -481.91036095 150.2026335 -479.52075195 148.12182617 C-440.16391404 114.02065851 -379.13897362 72.93124473 -324.859375 74.71484375 C-317.12488657 75.28631911 -309.48408841 77.18015108 -304 83 C-289.06037316 104.61477926 -294.77945314 144.67179852 -299.03515625 169.16015625 C-308.21893162 218.95391508 -331.31855554 271.25626118 -373.4375 301.9375 C-374.94822344 302.97323616 -376.46475413 304.00097306 -378 305 C-376.98421875 305.15855469 -375.9684375 305.31710937 -374.921875 305.48046875 C-358.14007624 308.2532028 -340.71843065 314.92962377 -330 329 C-330 329.66 -330 330.32 -330 331 C-301.29162708 315.69917137 -274.31130593 295.86269695 -264.25 263.4375 C-258.98277639 244.72016318 -257.34753758 224.70190827 -254.76757812 205.46679688 C-246.53300754 144.08801871 -231.25906845 93.91144929 -188 48 C-186.90751953 46.82630859 -186.90751953 46.82630859 -185.79296875 45.62890625 C-179.95102687 39.54851776 -173.49215525 34.41052339 -166.7734375 29.34667969 C-165.14458973 28.10979583 -163.53973876 26.84147641 -161.9375 25.5703125 C-115.7328236 -9.66075325 -54.55123142 -17.80151409 0 0 Z M-388 311 C-388.57688174 313.22779624 -388.57688174 313.22779624 -388.45410156 315.74682617 C-388.45379944 316.70759567 -388.45349731 317.66836517 -388.45318604 318.6582489 C-388.43254089 319.69270645 -388.41189575 320.727164 -388.390625 321.79296875 C-388.38496521 322.85413406 -388.37930542 323.91529938 -388.37347412 325.00862122 C-388.35106143 328.40203735 -388.30085449 331.79440235 -388.25 335.1875 C-388.2299414 337.48631289 -388.21168952 339.78514231 -388.1953125 342.08398438 C-388.1511807 347.72301564 -388.08421972 353.36143273 -388 359 C-386.35 358.34 -384.7 357.68 -383 357 C-383 340.83 -383 324.66 -383 308 C-385.16091462 308 -386.50047041 309.62953592 -388 311 Z M285 773 C285 773.66 285 774.32 285 775 C284.01 775.495 284.01 775.495 283 776 C284.65 776 286.3 776 288 776 C287.01 775.01 286.02 774.02 285 773 Z " fill="#E8EEFE" transform="translate(699,165)"/>
<path d="M0 0 C2.15290906 -0.00964349 4.30483653 -0.04067385 6.45751953 -0.07226562 C14.5731117 -0.13450104 21.82695251 0.55297066 29.55517578 3.24023438 C30.57611328 3.55605469 31.59705078 3.871875 32.64892578 4.19726562 C49.29282837 10.11449723 62.92355448 19.59194028 71.55517578 35.24023438 C80.40548912 55.23119773 73.5592991 83.15528407 66.23583984 102.54663086 C65.4737373 105.56251228 65.77022976 107.26592873 66.55517578 110.24023438 C66.69565078 112.54996758 66.77502849 114.86392975 66.80517578 117.17773438 C66.83095703 118.36238281 66.85673828 119.54703125 66.88330078 120.76757812 C66.27593725 127.19550887 63.25971053 131.01821601 58.55517578 135.24023438 C56.25887584 136.38838435 54.47819492 136.54793246 51.93017578 136.80273438 C51.11291016 136.88652344 50.29564453 136.9703125 49.45361328 137.05664062 C48.82712891 137.11722656 48.20064453 137.1778125 47.55517578 137.24023438 C47.24386719 138.16642578 47.24386719 138.16642578 46.92626953 139.11132812 C44.19118273 146.62995586 40.44166159 153.38787198 33.88330078 158.20117188 C30.18127009 163.03368845 30.7725426 168.12914932 30.74267578 174.05273438 C30.71753906 175.22255859 30.69240234 176.39238281 30.66650391 177.59765625 C30.60770396 180.47885368 30.57137046 183.3585342 30.55517578 186.24023438 C31.38130371 186.22573242 32.20743164 186.21123047 33.05859375 186.19628906 C43.66288725 186.09599173 54.19167969 186.60383251 64.77148438 187.30224609 C67.68175176 187.49033623 70.59278981 187.65634967 73.50439453 187.82226562 C101.84689336 189.58669346 121.88369132 202.35994377 140.55517578 223.24023438 C157.52967166 243.02626276 169.77927978 267.17344689 179.30517578 291.30273438 C179.56999756 291.95161621 179.83481934 292.60049805 180.10766602 293.26904297 C181.1380405 296.01744609 181.6958644 297.74373441 180.88330078 300.61132812 C179.55517578 302.24023438 179.55517578 302.24023438 176.55517578 303.24023438 C176.82668457 304.16022217 177.09819336 305.08020996 177.37792969 306.02807617 C203.00573321 392.89361456 203.00573321 392.89361456 192.37939453 413.27148438 C186.690152 422.53020883 178.72720925 427.84955655 168.55517578 431.24023438 C187.37179609 431.37309557 206.18843185 431.50353716 225.0050869 431.6313858 C233.74949281 431.69085076 242.49389274 431.75101234 251.23828125 431.81298828 C300.7970574 432.16542726 300.7970574 432.16542726 350.35673904 432.32835388 C352.8628633 432.33206723 355.36898577 432.33737209 357.875103 432.34437561 C361.27710485 432.35317102 364.67904296 432.35538799 368.08105469 432.35546875 C369.06569828 432.35903885 370.05034187 432.36260895 371.06482315 432.36628723 C375.67843372 432.35857781 380.01653663 432.19387243 384.55517578 431.24023438 C383.89517578 430.25023437 383.23517578 429.26023437 382.55517578 428.24023438 C382.29511356 425.21448708 382.29511356 425.21448708 382.28102112 421.42129517 C382.27578444 420.72397227 382.27054776 420.02664937 382.26515239 419.30819547 C382.25012191 416.96598544 382.24944659 414.62399328 382.2487793 412.28173828 C382.24115986 410.60469696 382.23273274 408.92765914 382.22355652 407.25062561 C382.20158362 402.6906889 382.19280891 398.13081926 382.18773007 393.57083559 C382.18408988 390.72293963 382.1778516 387.87506133 382.17072868 385.02717209 C382.14622477 375.09460425 382.1331802 365.16208871 382.12963867 355.22949219 C382.12600236 345.96640181 382.09610259 336.70364258 382.05423409 327.44065344 C382.01956192 319.49152443 382.00409077 311.54250532 382.00339264 303.59330118 C382.00259879 298.84395961 381.9938108 294.09495522 381.96539497 289.34569168 C381.93926676 284.87878207 381.9369795 280.41249045 381.95305061 275.94553947 C381.95486929 274.30604012 381.9481366 272.66650566 381.9322319 271.02708244 C381.91183724 268.78836717 381.92228068 266.55182764 381.94044495 264.31314087 C381.93742795 262.4343798 381.93742795 262.4343798 381.93435001 260.51766396 C382.7259584 256.33864806 384.27042418 254.85542578 387.55517578 252.24023438 C390.32470703 251.60531616 390.32470703 251.60531616 393.36767578 251.59326172 C394.51236328 251.57750092 395.65705078 251.56174011 396.83642578 251.54550171 C398.06361328 251.55562286 399.29080078 251.56574402 400.55517578 251.57617188 C401.82361328 251.57138824 403.09205078 251.56660461 404.39892578 251.56167603 C407.07948402 251.55827503 409.7577572 251.56496159 412.43798828 251.58837891 C415.86493433 251.61686896 419.28992259 251.60045736 422.71679688 251.57051659 C425.99632571 251.54805393 429.27562135 251.56380376 432.55517578 251.57617188 C433.78236328 251.56605072 435.00955078 251.55592957 436.27392578 251.54550171 C437.99095703 251.56914291 437.99095703 251.56914291 439.74267578 251.59326172 C441.24894531 251.59922867 441.24894531 251.59922867 442.78564453 251.60531616 C446.66828247 252.49541536 448.05836686 254.17302865 450.55517578 257.24023438 C451.17320824 260.53607464 451.17320824 260.53607464 451.16317749 264.35783386 C451.16815518 265.06306586 451.17313287 265.76829786 451.1782614 266.49490052 C451.18881864 268.85229025 451.16370553 271.20792536 451.13867188 273.56518555 C451.13889862 275.25723938 451.14131347 276.94929413 451.14575195 278.64134216 C451.15145772 283.23219513 451.12616971 287.82241294 451.09507704 292.41314483 C451.06753661 297.21415348 451.06753734 302.01516307 451.06436157 306.8162384 C451.05515925 314.87556962 451.02762826 322.93466338 450.98730469 330.99389648 C450.93043611 342.37050114 450.90815005 353.74698648 450.89201999 365.12371099 C450.87957584 372.99479724 450.85889295 380.86586529 450.83663988 388.73692918 C450.83127401 390.6480523 450.82613782 392.55917609 450.82122755 394.47030044 C450.80694613 399.91505285 450.78754954 405.35973673 450.75975037 410.80443764 C450.75201356 412.45646591 450.74595838 414.108503 450.74167252 415.76054382 C450.73547779 418.00827668 450.72313623 420.25589041 450.70907593 422.50358582 C450.70071748 424.39366002 450.70071748 424.39366002 450.69219017 426.32191753 C450.55517578 429.24023437 450.55517578 429.24023437 449.55517578 431.24023438 C478.76017578 431.73523438 478.76017578 431.73523438 508.55517578 432.24023438 C508.55517578 440.82023437 508.55517578 449.40023438 508.55517578 458.24023438 C171.95517578 458.24023438 -164.64482422 458.24023438 -511.44482422 458.24023438 C-511.44482422 449.66023438 -511.44482422 441.08023437 -511.44482422 432.24023438 C-507.86179947 432.24356529 -507.86179947 432.24356529 -504.20639038 432.2469635 C-473.74420602 432.27462183 -443.28201916 432.29213257 -412.81982422 432.30273438 C-411.60750767 432.30316868 -410.39519113 432.30360298 -409.14613771 432.30405045 C-346.80656059 432.32578308 -284.46972611 432.30361588 -222.13232422 431.74023438 C-221.46999755 431.73426066 -220.80767088 431.72828694 -220.1252737 431.72213221 C-204.23160574 431.57846828 -188.33812131 431.42033742 -172.44482422 431.24023438 C-173.66045044 430.66015625 -173.66045044 430.66015625 -174.90063477 430.06835938 C-175.97095947 429.54757812 -177.04128418 429.02679687 -178.14404297 428.49023438 C-179.20196045 427.97976563 -180.25987793 427.46929688 -181.34985352 426.94335938 C-191.24425619 421.49858908 -196.4236848 412.44866273 -200.44482422 402.24023438 C-202.52990856 393.74588512 -201.55746328 385.02556306 -199.88232422 376.55273438 C-199.70741455 375.65192139 -199.53250488 374.7511084 -199.35229492 373.82299805 C-197.77876705 366.12908997 -195.59821147 358.6849222 -193.23046875 351.20288086 C-190.86510944 343.72389387 -188.76369574 336.19805865 -186.75732422 328.61523438 C-184.49831033 320.09361393 -182.1773869 311.62461925 -179.44482422 303.24023438 C-180.08419922 302.97210937 -180.72357422 302.70398438 -181.38232422 302.42773438 C-183.44482422 301.24023438 -183.44482422 301.24023438 -184.44482422 298.24023438 C-183.98266602 296.39697266 -183.98266602 296.39697266 -183.14404297 294.31054688 C-182.83176758 293.52607178 -182.51949219 292.74159668 -182.19775391 291.93334961 C-181.84616211 291.08587158 -181.49457031 290.23839355 -181.13232422 289.36523438 C-180.76913086 288.479729 -180.4059375 287.59422363 -180.03173828 286.68188477 C-169.22100436 260.68257315 -155.8793343 236.83196573 -136.44482422 216.24023438 C-135.76033203 215.49128906 -135.07583984 214.74234375 -134.37060547 213.97070312 C-120.35320536 199.17599802 -103.25426223 189.87248774 -82.85888672 188.48632812 C-81.92491058 188.42115494 -80.99093445 188.35598175 -80.02865601 188.28883362 C-78.05014398 188.15189552 -76.0715123 188.01667699 -74.09277344 187.88305664 C-71.11460967 187.68077626 -68.13716564 187.46964344 -65.15966797 187.2578125 C-54.56722541 186.52362029 -44.06431783 186.02434013 -33.44482422 186.24023438 C-33.37993226 182.23856388 -33.40467151 178.24212095 -33.44482422 174.24023438 C-33.42548828 173.11488281 -33.40615234 171.98953125 -33.38623047 170.83007812 C-33.49274596 164.75869514 -33.84383782 161.10021625 -38.29638672 156.74804688 C-39.67553072 155.57445133 -41.05790859 154.40463539 -42.44482422 153.24023438 C-46.03605562 148.3456217 -48.89244216 143.1392862 -50.44482422 137.24023438 C-51.03650391 137.20285156 -51.62818359 137.16546875 -52.23779297 137.12695312 C-56.99546276 136.73112742 -60.65186217 136.38297436 -64.44482422 133.24023438 C-69.91614952 125.94513398 -70.43280562 119.19446577 -69.44482422 110.24023438 C-68.29248047 108.40820312 -68.29248047 108.40820312 -66.88232422 107.11523438 C-64.22400365 104.56725076 -64.22400365 104.56725076 -64.31787109 101.8815918 C-65.09546027 94.0607876 -66.49890395 86.43346469 -68.08621216 78.74359131 C-71.74991016 60.7705228 -76.02427066 38.86677651 -65.69482422 22.24023438 C-62.39657168 17.82057598 -58.41995734 13.72780094 -53.44482422 11.24023438 C-51.3433424 11.11695509 -49.23738515 11.06465431 -47.13232422 11.05273438 C-46.00181641 11.03855469 -44.87130859 11.024375 -43.70654297 11.00976562 C-40.51277579 11.23543301 -38.31718132 11.87680783 -35.44482422 13.24023438 C-35.10451172 12.37398437 -35.10451172 12.37398437 -34.75732422 11.49023438 C-31.24695121 5.47245207 -24.75405585 3.34002553 -18.44482422 1.24023438 C-12.38092468 -0.23793315 -6.20152506 0.01676465 0 0 Z " fill="#FECC8A" transform="translate(601.44482421875,508.759765625)"/>
<path d="M0 0 C3.53890677 2.81337868 6.79894989 5.80993119 10 9 C10.95712891 9.92232422 10.95712891 9.92232422 11.93359375 10.86328125 C19.14520126 18.36399552 23.75313221 27.72488583 25 38 C26.64524411 47.13570334 33.26986193 51.66174984 40.05175781 57.34033203 C49.25451157 65.17997113 57.0143456 74.16854574 64 84 C64.40959961 84.57588867 64.81919922 85.15177734 65.24121094 85.74511719 C97.20601207 131.18454175 116.92248474 189.54103345 117.203125 245.29296875 C117.21013931 246.23393402 117.21715363 247.17489929 117.22438049 248.14437866 C117.24176118 251.15880184 117.24823121 254.17302858 117.25 257.1875 C117.25067474 258.21745087 117.25134949 259.24740173 117.25204468 260.30856323 C117.22834978 283.05411719 114.80661787 303.96698358 109 326 C108.67 326 108.34 326 108 326 C107.99635437 325.11938904 107.99270874 324.23877808 107.98895264 323.33148193 C107.95108629 315.03259664 107.89424921 306.73410487 107.81609726 298.43549728 C107.77658747 294.16905936 107.74441637 289.9028289 107.72900391 285.63623047 C107.71386008 281.51868948 107.67945588 277.40171874 107.63169098 273.28443146 C107.61685353 271.71361497 107.60895763 270.14271708 107.60811615 268.57183075 C107.60575167 266.37116196 107.57871822 264.17207581 107.54589844 261.97167969 C107.53701599 260.71925476 107.52813354 259.46682983 107.51898193 258.17645264 C107.22819675 254.95788475 107.22819675 254.95788475 105.32305908 252.59661865 C102.43231349 250.60983391 100.77747691 250.49343206 97.28515625 250.48242188 C96.13716553 250.46981323 94.9891748 250.45720459 93.80639648 250.44421387 C92.57091064 250.45231079 91.3354248 250.46040771 90.0625 250.46875 C88.79027588 250.4649231 87.51805176 250.46109619 86.20727539 250.45715332 C83.51686173 250.45443073 80.82790129 250.45980186 78.13769531 250.47851562 C74.69405255 250.50130638 71.25165673 250.48818031 67.80805969 250.46422577 C64.51782872 250.44627448 61.22774725 250.4588528 57.9375 250.46875 C56.70201416 250.46065308 55.46652832 250.45255615 54.19360352 250.44421387 C52.47161743 250.46312683 52.47161743 250.46312683 50.71484375 250.48242188 C49.70542725 250.48560425 48.69601074 250.48878662 47.65600586 250.49206543 C44.16825895 251.15906216 43.16561108 252.20385806 41 255 C40.41689977 258.26504933 40.41689977 258.26504933 40.53916931 261.99061584 C40.53786831 262.69428785 40.53656731 263.39795986 40.53522688 264.12295526 C40.53566327 266.48095852 40.56468623 268.83774223 40.59350586 271.19555664 C40.59954535 272.88583345 40.60377847 274.57611754 40.6063385 276.2664032 C40.61559572 279.90607296 40.63738246 283.54537765 40.66877556 287.18492317 C40.71804308 292.93669724 40.73795568 298.68834224 40.7535553 304.44029236 C40.78785426 315.60901978 40.85167299 326.77748298 40.9189682 337.94605255 C41.00352773 352.16622157 41.07635097 366.38638905 41.11958414 380.60674757 C41.13798806 386.32797464 41.17177158 392.0488466 41.21741664 397.76991856 C41.24292832 401.32419854 41.25618068 404.87844793 41.26614952 408.4328022 C41.27338079 410.08444852 41.28582356 411.73608122 41.30378342 413.38764572 C41.32757464 415.63741122 41.33301713 417.88649417 41.33384705 420.1363678 C41.3418077 421.39679429 41.34976835 422.65722078 41.35797024 423.95584202 C41 427 41 427 39.60413456 428.86647701 C36.81711133 430.83585974 35.09545023 431.1245251 31.72817993 431.12145996 C30.82403477 431.12297562 29.9198896 431.12449127 28.9883461 431.12605286 C27.98623974 431.12248276 26.98413338 431.11891266 25.95166016 431.11523438 C24.8882629 431.1152092 23.82486565 431.11518402 22.72924423 431.11515808 C19.12415714 431.11331063 15.51913579 431.10369978 11.9140625 431.09375 C9.32760647 431.08994406 6.74115015 431.08632764 4.1546936 431.08288574 C-28.81941628 431.0288405 -61.79314881 430.78505081 -94.76639152 430.55461884 C-103.65739792 430.49255952 -112.54841969 430.43284202 -121.43944287 430.37324238 C-139.62631237 430.25128096 -157.81316241 430.12662622 -176 430 C-173.90345283 427.90345283 -172.45766711 427.23938 -169.75 426.125 C-158.63626347 421.25055415 -151.52535812 413.70237773 -146.8984375 402.4921875 C-143.62926645 393.42379128 -144.72635198 383.5997096 -146.5625 374.3125 C-146.8248645 372.96128052 -146.8248645 372.96128052 -147.0925293 371.58276367 C-148.66559183 363.89113088 -150.84538252 356.44914863 -153.2121582 348.96923828 C-155.93389062 340.36262023 -158.30085258 331.6816481 -160.6027832 322.9543457 C-162.10325063 317.27761456 -163.6783583 311.64822841 -165.45800781 306.05200195 C-166 304 -166 304 -166 301 C-164 299.3125 -164 299.3125 -162 298 C-163.92598252 291.09166442 -166.27203621 284.5151838 -169.125 277.9375 C-169.51824463 277.02846924 -169.91148926 276.11943848 -170.31665039 275.18286133 C-174.11152915 266.54220269 -178.31265533 258.18947491 -183 250 C-183.38236816 249.33162109 -183.76473633 248.66324219 -184.15869141 247.97460938 C-193.58885968 231.72787752 -205.45528166 217.94617923 -219 205 C-217.74977047 201.2493114 -216.23613124 200.3972456 -213.125 198 C-203.06259778 189.91367677 -195.08891728 181.12316522 -187.6328125 170.65625 C-180.03207557 160.00298595 -171.60891446 150.6662904 -161.1875 142.75 C-160.45321777 142.19207764 -159.71893555 141.63415527 -158.96240234 141.05932617 C-150.99137747 135.10599338 -142.63970549 129.91954995 -134 125 C-133.26088379 124.5762207 -132.52176758 124.15244141 -131.76025391 123.71582031 C-115.55520534 114.52742712 -98.21704936 107.21013152 -80.29858398 102.10302734 C-77.84970131 101.22615393 -77.84970131 101.22615393 -77.06665039 99.0078125 C-76.77961399 96.82367449 -76.77961399 96.82367449 -78.625 94.9140625 C-79.40875 94.15867187 -80.1925 93.40328125 -81 92.625 C-92.95369006 79.9451512 -96.5335261 64.29206882 -96.41992188 47.30981445 C-96.2118173 40.29495607 -95.02157693 34.38185569 -92 28 C-91.49082031 26.91203125 -90.98164062 25.8240625 -90.45703125 24.703125 C-84.75556755 13.37847857 -77.74452718 5.66736285 -67 -1 C-66.13375 -1.54785156 -65.2675 -2.09570312 -64.375 -2.66015625 C-45.0233391 -14.10801379 -18.4780583 -12.90031624 0 0 Z " fill="#DBE2FC" transform="translate(944,511)"/>
<path d="M0 0 C0.71559082 -0.00067474 1.43118164 -0.00134949 2.16845703 -0.00204468 C12.92481602 0.01407299 23.11233911 0.47295618 33.5625 3.25 C34.21492676 3.42160645 34.86735352 3.59321289 35.53955078 3.77001953 C68.42309682 12.63455531 94.84188255 32.32925775 118.5 56.25 C124.91020211 62.72066952 131.36244082 68.66628063 138.5625 74.25 C140.31341693 75.72808116 142.06338712 77.20728442 143.8125 78.6875 C153.05571814 86.25373427 163.29965766 92.51463271 173.390625 98.875 C175.12992182 99.97613755 176.84967696 101.10811797 178.5625 102.25 C177.95664062 102.94222656 177.35078125 103.63445312 176.7265625 104.34765625 C160.19779335 123.64817284 148.33710038 145.87576937 138.5625 169.25 C138.1509668 170.22855957 137.73943359 171.20711914 137.31542969 172.21533203 C136.93032227 173.18712402 136.54521484 174.15891602 136.1484375 175.16015625 C135.79571777 176.03937744 135.44299805 176.91859863 135.07958984 177.82446289 C134.34516188 180.24795398 134.34516188 180.24795398 135.33837891 182.50561523 C136.45889748 184.39622009 136.45889748 184.39622009 138.5625 185.25 C137.77066815 191.19889056 136.07494418 196.86673576 134.4375 202.625 C133.97380005 204.27036743 133.97380005 204.27036743 133.50073242 205.94897461 C131.62910114 212.56711959 129.71288839 219.17128499 127.77075195 225.76904297 C116.37814908 260.73225823 116.37814908 260.73225823 123.8125 295.3515625 C128.58559757 303.25700535 134.62786002 307.2197809 142.92578125 311.0234375 C145.5625 312.25 145.5625 312.25 148.5625 314.25 C-1.92813004 315.53214463 -1.92813004 315.53214463 -41.97869873 315.26959229 C-45.66565106 315.24870764 -49.35255289 315.23775834 -53.03955078 315.22802734 C-59.39306344 315.20888403 -65.7458451 315.16223878 -72.09902954 315.09539795 C-74.43911889 315.07394476 -76.77929423 315.06011174 -79.11947632 315.05499268 C-105.6654494 314.97789053 -122.50959212 305.15903269 -141.4375 286.5625 C-175.1733434 252.50778208 -200.4446382 201.06687858 -205.765625 153.3046875 C-205.32390758 149.1925087 -203.48548268 146.368842 -201.25 143 C-200.8065625 142.31252686 -200.363125 141.62505371 -199.90625 140.91674805 C-186.57545803 120.50971096 -171.5734459 100.88241618 -154.9921875 83.0234375 C-152.92498759 80.77922965 -150.9171492 78.50814141 -148.9375 76.1875 C-142.07197087 68.28473266 -134.48249526 60.9410173 -126.4375 54.25 C-125.90060547 53.79931152 -125.36371094 53.34862305 -124.81054688 52.88427734 C-109.33152125 39.92576685 -93.40810765 28.50782688 -75.4375 19.25 C-74.74188965 18.88922363 -74.0462793 18.52844727 -73.32958984 18.15673828 C-50.15707649 6.28869071 -26.02099027 0.02200743 0 0 Z " fill="#DBE2FC" transform="translate(283.4375,626.75)"/>
<path d="M0 0 C1.0219301 -0.00935994 2.04386021 -0.01871989 3.09675789 -0.02836347 C6.51409253 -0.05225698 9.92982201 -0.0333543 13.34716797 -0.01446533 C15.79987523 -0.02259713 18.25257517 -0.03328111 20.70526123 -0.04632568 C26.67126608 -0.07084103 32.6366432 -0.06725855 38.60262346 -0.04984984 C43.45226283 -0.03628584 48.30177532 -0.03446768 53.15142822 -0.04099274 C53.84229904 -0.04191214 54.53316986 -0.04283153 55.24497616 -0.04377879 C56.64857534 -0.04569719 58.05217449 -0.04764247 59.45577359 -0.04961434 C72.60977689 -0.06671358 85.76352909 -0.04706758 98.9174912 -0.01481214 C110.1982123 0.01199369 121.47856292 0.00733725 132.75927734 -0.02032471 C145.86697677 -0.05245176 158.97445626 -0.06506572 172.08218956 -0.04665112 C173.48055391 -0.04473988 174.8789183 -0.04285365 176.27728271 -0.04099274 C177.30924922 -0.03960426 177.30924922 -0.03960426 178.36206353 -0.03818773 C183.20450323 -0.0330125 188.04680314 -0.04173989 192.88922119 -0.05587006 C199.40978597 -0.07447925 205.9297599 -0.06118388 212.45029449 -0.02650452 C214.84360848 -0.01856963 217.23698133 -0.02085188 219.63027191 -0.03408051 C222.89721366 -0.05047353 226.16191222 -0.02992088 229.42871094 0 C230.37628328 -0.01338433 231.32385563 -0.02676866 232.30014229 -0.04055858 C237.99346193 0.06061523 241.3667144 1.06490499 245.46128285 5.13663101 C247.22420314 7.42318879 247.57798232 9.00990858 247.55613708 11.88723755 C247.56575974 12.8715274 247.57538239 13.85581726 247.58529663 14.86993408 C247.5601297 15.9330481 247.53496277 16.99616211 247.5090332 18.0914917 C247.51005539 19.22378204 247.51107758 20.35607239 247.51213074 21.52267456 C247.50726246 25.25702539 247.45284987 28.98891685 247.39794922 32.72283936 C247.38489051 35.31499903 247.37492763 37.907176 247.36793518 40.49935913 C247.34395964 46.61950256 247.28882138 52.73863437 247.21848875 58.85839713 C247.1401345 65.82804928 247.10173134 72.79774437 247.06662071 79.76772761 C246.99353346 94.09959058 246.87047968 108.43071494 246.71435547 122.76190186 C247.98142334 122.75666504 249.24849121 122.75142822 250.55395508 122.74603271 C255.23721617 122.72798671 259.92047417 122.71647132 264.60375977 122.70697021 C266.63403845 122.70192907 268.66431349 122.69509629 270.69458008 122.6864624 C273.60612893 122.67438718 276.51762997 122.66867151 279.42919922 122.66424561 C280.79950539 122.65650368 280.79950539 122.65650368 282.19749451 122.64860535 C284.37010974 122.64841017 286.54262843 122.69978381 288.71435547 122.76190186 C289.71435547 123.76190186 289.71435547 123.76190186 289.83935547 126.26190186 C289.71435547 128.76190186 289.71435547 128.76190186 288.71435547 129.76190186 C285.68457743 129.85061458 282.67768525 129.87709536 279.64794922 129.85955811 C278.73932632 129.85814316 277.83070343 129.85672821 276.89454651 129.85527039 C273.98028326 129.84965379 271.06609566 129.8370985 268.15185547 129.82440186 C266.18115345 129.81938899 264.21045023 129.81482572 262.23974609 129.81072998 C257.39791988 129.79967897 252.55615052 129.78240324 247.71435547 129.76190186 C247.74577637 131.48690918 247.74577637 131.48690918 247.77783203 133.24676514 C247.8504461 137.52935242 247.89623276 141.81188568 247.93408203 146.09490967 C247.95414886 147.94558882 247.98140892 149.79620494 248.01611328 151.64666748 C248.0648498 154.31284163 248.08737334 156.97817472 248.10498047 159.64471436 C248.12562561 160.46682404 248.14627075 161.28893372 248.1675415 162.13595581 C248.1696146 167.49055402 247.2969543 170.52990645 243.71435547 174.76190186 C242.22935547 175.75190186 242.22935547 175.75190186 240.71435547 176.76190186 C240.38435547 181.05190186 240.05435547 185.34190186 239.71435547 189.76190186 C157.21435547 189.76190186 74.71435547 189.76190186 -10.28564453 189.76190186 C-10.61564453 185.47190186 -10.94564453 181.18190186 -11.28564453 176.76190186 C-12.93564453 175.44190186 -14.58564453 174.12190186 -16.28564453 172.76190186 C-19.17363568 169.00306696 -18.53706049 164.36431905 -18.48095703 159.84002686 C-18.47812714 158.98004089 -18.47529724 158.12005493 -18.47238159 157.23400879 C-18.46120603 154.49316365 -18.43610633 151.75264787 -18.41064453 149.01190186 C-18.40061134 147.1512295 -18.39148608 145.29055201 -18.38330078 143.42987061 C-18.36127529 138.87375454 -18.3267635 134.317884 -18.28564453 129.76190186 C-20.14080688 129.76975708 -20.14080688 129.76975708 -22.03344727 129.777771 C-26.60489178 129.79581747 -31.17633312 129.80733256 -35.74780273 129.8168335 C-37.72957895 129.82187453 -39.71135142 129.82870724 -41.69311523 129.83734131 C-44.53516562 129.849417 -47.377167 129.85513231 -50.21923828 129.85955811 C-51.55673378 129.86730003 -51.55673378 129.86730003 -52.92124939 129.87519836 C-55.04305054 129.87539362 -57.16475233 129.82400216 -59.28564453 129.76190186 C-60.28564453 128.76190186 -60.28564453 128.76190186 -60.41064453 126.26190186 C-60.28564453 123.76190186 -60.28564453 123.76190186 -59.28564453 122.76190186 C-56.18313253 122.67316051 -53.10296333 122.6467173 -50.00048828 122.66424561 C-49.06966934 122.66566055 -48.1388504 122.6670755 -47.17982483 122.66853333 C-44.19423262 122.67415013 -41.20871424 122.68670546 -38.22314453 122.69940186 C-36.2042654 122.70441469 -34.1853851 122.70897797 -32.16650391 122.71307373 C-27.20618882 122.72412503 -22.24592921 122.7414009 -17.28564453 122.76190186 C-17.29209708 122.16959967 -17.29854963 121.57729748 -17.30519772 120.96704674 C-17.4598933 106.54462453 -17.5756749 92.12227644 -17.64832973 77.69920921 C-17.68440078 70.72419792 -17.73356304 63.74974092 -17.8137207 56.77508545 C-17.89103362 50.04473878 -17.93162878 43.31508701 -17.94978523 36.58427811 C-17.96272483 34.01576291 -17.98799311 31.44727944 -18.02575493 28.87900925 C-18.07653501 25.28247597 -18.08356934 21.68832547 -18.08032227 18.0914917 C-18.1054892 17.02837769 -18.13065613 15.96526367 -18.15658569 14.86993408 C-18.14696304 13.88564423 -18.13734039 12.90135437 -18.12742615 11.88723755 C-18.1338787 11.03734442 -18.14033125 10.18745129 -18.14697933 9.31180382 C-15.29573875 0.87096996 -7.86432432 -0.11108251 0 0 Z " fill="#171E3F" transform="translate(485.28564453125,752.2380981445313)"/>
<path d="M0 0 C13.371285 14.1899351 10.03768366 42.70225712 9.53125 60.625 C7.03726093 118.54434787 -17.67337625 174.16868418 -59.67480469 213.98779297 C-70.22943178 223.62025477 -70.22943178 223.62025477 -77.46875 224.625 C-77.79875 225.615 -78.12875 226.605 -78.46875 227.625 C-82.33887445 230.31258642 -85.8874576 230.92236417 -90.53125 231.5625 C-100.05419531 232.90284645 -108.24271679 235.1125178 -116.34375 240.375 C-133.01955426 249.66380333 -156.64851456 242.51805246 -173.81591797 237.68212891 C-193.72050856 231.84250454 -214.3412354 224.37899572 -229.46875 209.625 C-230.54962891 208.60212891 -230.54962891 208.60212891 -231.65234375 207.55859375 C-242.1402827 196.7930912 -245.80891551 184.2999204 -245.8515625 169.62402344 C-245.25451024 134.95767644 -215.76641422 105.37939098 -192.65625 82.65234375 C-189.03332495 79.1589644 -185.19969849 75.9741319 -181.25390625 72.8515625 C-178.77859921 70.87270554 -176.37911095 68.8276335 -173.98950195 66.74682617 C-142.34794863 39.33065221 -43.67599859 -34.61116869 0 0 Z " fill="#E8EEFE" transform="translate(393.46875,246.375)"/>
<path d="M0 0 C2.15290906 -0.00964349 4.30483653 -0.04067385 6.45751953 -0.07226562 C14.5731117 -0.13450104 21.82695251 0.55297066 29.55517578 3.24023438 C30.57611328 3.55605469 31.59705078 3.871875 32.64892578 4.19726562 C49.29282837 10.11449723 62.92355448 19.59194028 71.55517578 35.24023438 C80.40548912 55.23119773 73.5592991 83.15528407 66.23583984 102.54663086 C65.4737373 105.56251228 65.77022976 107.26592873 66.55517578 110.24023438 C66.69565078 112.54996758 66.77502849 114.86392975 66.80517578 117.17773438 C66.84384766 118.95470703 66.84384766 118.95470703 66.88330078 120.76757812 C66.27593725 127.19550887 63.25971053 131.01821601 58.55517578 135.24023438 C56.25887584 136.38838435 54.47819492 136.54793246 51.93017578 136.80273438 C51.11291016 136.88652344 50.29564453 136.9703125 49.45361328 137.05664062 C48.82712891 137.11722656 48.20064453 137.1778125 47.55517578 137.24023438 C47.34763672 137.85769531 47.14009766 138.47515625 46.92626953 139.11132812 C44.19118273 146.62995586 40.44166159 153.38787198 33.88330078 158.20117188 C30.18127009 163.03368845 30.7725426 168.12914932 30.74267578 174.05273438 C30.71753906 175.22255859 30.69240234 176.39238281 30.66650391 177.59765625 C30.60770396 180.47885368 30.57137046 183.3585342 30.55517578 186.24023438 C31.38130371 186.22573242 32.20743164 186.21123047 33.05859375 186.19628906 C43.66288725 186.09599173 54.19167969 186.60383251 64.77148438 187.30224609 C67.68175176 187.49033623 70.59278981 187.65634967 73.50439453 187.82226562 C101.84689336 189.58669346 121.88369132 202.35994377 140.55517578 223.24023438 C157.52967166 243.02626276 169.77927978 267.17344689 179.30517578 291.30273438 C179.56999756 291.95161621 179.83481934 292.60049805 180.10766602 293.26904297 C181.07391448 295.84639745 181.67095023 297.71124867 181.07470703 300.43554688 C171.77389159 311.48175956 149.21055819 318.11606378 135.55517578 320.24023438 C134.23517578 320.24023438 132.91517578 320.24023438 131.55517578 320.24023438 C131.55517578 335.42023438 131.55517578 350.60023438 131.55517578 366.24023438 C131.22517578 366.24023438 130.89517578 366.24023438 130.55517578 366.24023438 C130.55555281 365.64701039 130.55592983 365.05378641 130.55631828 364.44258595 C130.56343753 350.00347598 130.53751944 335.56470436 130.47489738 321.12572956 C130.44540893 314.14306645 130.42707453 307.16070762 130.43505859 300.17797852 C130.44273034 293.44093999 130.41923931 286.70467231 130.37662125 279.96773338 C130.36546717 277.39571694 130.36481041 274.82363313 130.37475204 272.25161171 C130.38688248 268.65243228 130.3619161 265.05529893 130.328125 261.45629883 C130.34645638 259.85623489 130.34645638 259.85623489 130.36515808 258.22384644 C130.34849594 257.24093124 130.3318338 256.25801605 130.31466675 255.24531555 C130.31282316 254.39450063 130.31097958 253.5436857 130.30908012 252.66708851 C129.39147921 249.71328728 127.94983594 248.07460863 125.48770535 246.21967119 C121.64478535 244.27201803 117.6065231 244.55579081 113.38305664 244.60531616 C112.3612754 244.59751621 111.33949415 244.58971626 110.28674984 244.58167994 C106.86413925 244.56174198 103.4426383 244.57753249 100.02001953 244.59326172 C97.56584016 244.58648645 95.11166586 244.57758384 92.65750122 244.56671143 C86.68440885 244.54626993 80.7117517 244.54927399 74.73867631 244.56377463 C69.88377191 244.57507222 65.02895553 244.57659555 60.17404175 244.57115555 C59.48274671 244.57038938 58.79145168 244.56962322 58.07920831 244.56883384 C56.67480188 244.56723519 55.27039547 244.56561412 53.86598909 244.56397088 C40.70060494 244.5497173 27.53539493 244.56609989 14.37003934 244.59297271 C3.07652106 244.61531121 -8.21674026 244.61143097 -19.51025391 244.58837891 C-32.62890446 244.56161391 -45.74740243 244.55109055 -58.86607647 244.56644022 C-60.26528102 244.56803295 -61.66448559 244.5696048 -63.06369019 244.57115555 C-64.09631024 244.57231261 -64.09631024 244.57231261 -65.1497913 244.57349306 C-69.99818308 244.57780798 -74.84647797 244.57052803 -79.69485474 244.55875778 C-86.22190608 244.5432604 -92.74854719 244.55431309 -99.27557755 244.58322906 C-101.67253945 244.58984637 -104.06954216 244.58793132 -106.46648788 244.57691574 C-109.73578082 244.56327518 -113.00351198 244.58036018 -116.27270508 244.60531616 C-117.22387239 244.59416255 -118.17503969 244.58300894 -119.15503025 244.57151735 C-123.43736929 244.635033 -126.54289821 244.83761602 -130.03311348 247.46709919 C-132.59958295 250.4181856 -133.19603604 251.42448952 -133.20431519 255.24531555 C-133.22097733 256.22823074 -133.23763947 257.21114594 -133.25480652 258.22384644 C-133.2425856 259.29055573 -133.23036469 260.35726501 -133.21777344 261.45629883 C-133.22840317 262.58844315 -133.2390329 263.72058746 -133.24998474 264.88703918 C-133.27807235 268.62631476 -133.26396536 272.36418248 -133.24951172 276.10351562 C-133.26075946 278.69713069 -133.27463903 281.29073557 -133.29104614 283.88432312 C-133.32345053 290.01126456 -133.32932669 296.13770442 -133.32232106 302.26471061 C-133.31582591 309.2418324 -133.34326393 316.21869241 -133.37352347 323.19573653 C-133.43499304 337.54391815 -133.45394333 351.8919327 -133.44482422 366.24023438 C-133.77482422 366.24023438 -134.10482422 366.24023438 -134.44482422 366.24023438 C-134.44482422 351.06023437 -134.44482422 335.88023437 -134.44482422 320.24023438 C-137.74482422 319.91023438 -141.04482422 319.58023437 -144.44482422 319.24023438 C-147.34688695 318.51672103 -150.06771925 317.76317905 -152.88232422 316.80273438 C-153.63586182 316.54903076 -154.38939941 316.29532715 -155.16577148 316.03393555 C-164.92408726 312.57700776 -177.27804372 307.95627849 -184.44482422 300.24023438 C-182.51883821 293.33188628 -180.172722 286.75545615 -177.31982422 280.17773438 C-176.73104492 278.81636353 -176.73104492 278.81636353 -176.13037109 277.42749023 C-166.237994 254.89945525 -153.38312659 234.18712218 -136.44482422 216.24023438 C-135.76033203 215.49128906 -135.07583984 214.74234375 -134.37060547 213.97070312 C-120.35320536 199.17599802 -103.25426223 189.87248774 -82.85888672 188.48632812 C-81.92491058 188.42115494 -80.99093445 188.35598175 -80.02865601 188.28883362 C-78.05014398 188.15189552 -76.0715123 188.01667699 -74.09277344 187.88305664 C-71.11460967 187.68077626 -68.13716564 187.46964344 -65.15966797 187.2578125 C-54.56722541 186.52362029 -44.06431783 186.02434013 -33.44482422 186.24023438 C-33.37993226 182.23856388 -33.40467151 178.24212095 -33.44482422 174.24023438 C-33.42548828 173.11488281 -33.40615234 171.98953125 -33.38623047 170.83007812 C-33.49274596 164.75869514 -33.84383782 161.10021625 -38.29638672 156.74804688 C-39.67553072 155.57445133 -41.05790859 154.40463539 -42.44482422 153.24023438 C-46.03605562 148.3456217 -48.89244216 143.1392862 -50.44482422 137.24023438 C-51.03650391 137.20285156 -51.62818359 137.16546875 -52.23779297 137.12695312 C-56.99546276 136.73112742 -60.65186217 136.38297436 -64.44482422 133.24023438 C-69.91614952 125.94513398 -70.43280562 119.19446577 -69.44482422 110.24023438 C-68.29248047 108.40820312 -68.29248047 108.40820312 -66.88232422 107.11523438 C-64.22400365 104.56725076 -64.22400365 104.56725076 -64.31787109 101.8815918 C-65.09546027 94.0607876 -66.49890395 86.43346469 -68.08621216 78.74359131 C-71.74991016 60.7705228 -76.02427066 38.86677651 -65.69482422 22.24023438 C-62.39657168 17.82057598 -58.41995734 13.72780094 -53.44482422 11.24023438 C-51.3433424 11.11695509 -49.23738515 11.06465431 -47.13232422 11.05273438 C-46.00181641 11.03855469 -44.87130859 11.024375 -43.70654297 11.00976562 C-40.51277579 11.23543301 -38.31718132 11.87680783 -35.44482422 13.24023438 C-35.10451172 12.37398437 -35.10451172 12.37398437 -34.75732422 11.49023438 C-31.24695121 5.47245207 -24.75405585 3.34002553 -18.44482422 1.24023438 C-12.38092468 -0.23793315 -6.20152506 0.01676465 0 0 Z " fill="#FD7383" transform="translate(601.44482421875,508.759765625)"/>
<path d="M0 0 C26.99504313 21.56890381 39.30220597 58.31037799 46.859375 90.796875 C47.02808105 91.51601074 47.19678711 92.23514648 47.37060547 92.97607422 C52.6481413 115.93250294 57.05642673 146.33404986 46.984375 168.484375 C42.99182298 174.70805903 39.0662157 178.19261252 31.859375 179.796875 C14.9207982 181.99460174 -1.68490366 173.02937426 -14.765625 163.046875 C-44.04513488 139.93830263 -72.61352023 105.16408793 -77.140625 66.796875 C-77.4343722 62.66986546 -77.54531083 58.55869013 -77.578125 54.421875 C-77.58835693 53.43566162 -77.59858887 52.44944824 -77.60913086 51.43334961 C-77.41087781 34.90902718 -70.61522583 20.07812638 -59.02734375 8.48828125 C-41.98513924 -7.40086477 -20.41246256 -14.31919015 0 0 Z " fill="#E9EFFF" transform="translate(968.140625,312.203125)"/>
<path d="M0 0 C1.24778732 -0.0071553 2.49557465 -0.01431061 3.78117371 -0.02168274 C5.17172216 -0.02452314 6.56227089 -0.02723486 7.95281982 -0.02983093 C9.411343 -0.03609465 10.86986458 -0.04274136 12.3283844 -0.04974365 C16.29754495 -0.06716301 20.26669345 -0.07770817 24.23588276 -0.08594918 C26.71542127 -0.09109787 29.19495602 -0.09717369 31.67449188 -0.10346031 C39.43151614 -0.12251589 47.18853087 -0.13674566 54.94557405 -0.14507228 C63.9012058 -0.15484396 72.85659034 -0.18116001 81.81213498 -0.22157317 C88.73280843 -0.2517323 95.65341101 -0.26654099 102.57414889 -0.26985329 C106.70814648 -0.27220422 110.84188007 -0.28116976 114.97580719 -0.30631447 C118.86645855 -0.32959654 122.75667214 -0.33382811 126.64737511 -0.32355309 C128.07359714 -0.32305762 129.49984073 -0.32938123 130.92599678 -0.34310913 C144.37809422 -0.46532685 144.37809422 -0.46532685 149.14324951 4.14717102 C151.56285647 7.77658146 151.40673799 9.4956127 151.43377686 13.8183136 C151.44049408 14.49186386 151.4472113 15.16541412 151.45413208 15.859375 C151.47313469 18.08689244 151.47703766 20.31410881 151.47918701 22.54170227 C151.4856145 24.09245935 151.49234282 25.6432152 151.49935913 27.19396973 C151.51133833 30.44638377 151.51503941 33.69869155 151.51385498 36.9511261 C151.51365201 41.11077282 151.54092819 45.26973466 151.5753994 49.42921925 C151.59768435 52.63350527 151.60169201 55.83762707 151.60063553 59.04198265 C151.60299009 60.57493635 151.61180553 62.10789467 151.62730026 63.64077187 C151.64698946 65.79027715 151.64111207 67.9383138 151.62908936 70.08784485 C151.63193939 71.30901505 151.63478943 72.53018524 151.63772583 73.7883606 C151.04540577 77.8117905 149.64380053 79.97985149 147.14324951 83.14717102 C143.96401027 85.44713388 141.13976523 85.38182934 137.28387451 85.34248352 C136.27872803 85.3374884 135.27358154 85.33249329 134.23797607 85.3273468 C132.96921631 85.30913879 131.70045654 85.29093079 130.39324951 85.27217102 C126.35074951 85.23092102 122.30824951 85.18967102 118.14324951 85.14717102 C118.14324951 97.68717102 118.14324951 110.22717102 118.14324951 123.14717102 C110.55077613 116.63933669 110.55077613 116.63933669 107.76844788 111.76689148 C101.27651807 100.62216075 92.48676605 90.62843648 80.14324951 86.14717102 C62.4115612 82.17541862 43.08224374 83.71283966 25.06243896 84.27876282 C24.13454654 84.3078775 23.20665411 84.33699219 22.25064373 84.36698914 C17.81329892 84.51508903 13.38314145 84.7012317 8.95091248 84.96153259 C7.73440396 85.02202018 7.73440396 85.02202018 6.49331951 85.08372974 C4.99467082 85.15903193 3.49670959 85.25090142 2.00041676 85.36371136 C-3.53414632 85.61892026 -6.4315702 84.21368722 -10.85675049 81.14717102 C-12.32640256 78.20786687 -12.00846121 75.57990556 -12.03375244 72.29829407 C-12.04032364 71.59402283 -12.04689484 70.88975159 -12.05366516 70.16413879 C-12.073406 67.82905474 -12.08506263 65.49403503 -12.09503174 63.15888977 C-12.09910727 62.36158762 -12.10318279 61.56428547 -12.10738182 60.74282265 C-12.12824625 56.52254622 -12.14254614 52.30230234 -12.1519165 48.08198547 C-12.16297983 43.72384584 -12.19737732 39.36621696 -12.2370882 35.00825787 C-12.26324032 31.65648452 -12.27160708 28.30483309 -12.27519798 24.95296669 C-12.28006788 23.3466071 -12.29169342 21.7402531 -12.31023598 20.13399315 C-12.3345981 17.88366173 -12.33366852 15.63465463 -12.32672119 13.38423157 C-12.33258743 12.10452988 -12.33845367 10.82482819 -12.34449768 9.50634766 C-11.77320053 5.5717519 -10.62969572 3.93937801 -7.85675049 1.14717102 C-5.14998099 -0.20621373 -3.03176964 0.01189581 0 0 Z " fill="#7C96F2" transform="translate(533.8567504882813,364.8528289794922)"/>
<path d="M0 0 C2.15290906 -0.00964349 4.30483653 -0.04067385 6.45751953 -0.07226562 C14.5731117 -0.13450104 21.82695251 0.55297066 29.55517578 3.24023438 C30.57611328 3.55605469 31.59705078 3.871875 32.64892578 4.19726562 C49.29282837 10.11449723 62.92355448 19.59194028 71.55517578 35.24023438 C80.25717006 54.89617673 73.75695182 82.5777622 66.74267578 101.80273438 C66.03257119 103.62278705 65.31230411 105.43923549 64.55517578 107.24023438 C63.65025391 106.59054687 62.74533203 105.94085937 61.81298828 105.27148438 C57.39570677 102.51730406 55.643387 102.58369099 50.55517578 103.24023438 C46.09809822 105.8903886 45.35872964 110.45268507 44.07080078 115.19335938 C43.90064453 115.86882812 43.73048828 116.54429687 43.55517578 117.24023438 C43.22517578 117.24023438 42.89517578 117.24023438 42.55517578 117.24023438 C42.54099609 116.61117187 42.52681641 115.98210937 42.51220703 115.33398438 C42.16482503 109.09988567 41.17238404 103.73000377 36.55517578 99.24023438 C29.72222203 94.56939884 23.57551625 94.85520858 15.47317505 94.96826172 C2.51320416 95.10350992 -8.22363713 93.60597144 -20.09716797 88.05273438 C-24.54671446 85.99303961 -28.56929564 85.55009915 -33.44482422 85.24023438 C-33.38294922 86.23023438 -33.32107422 87.22023438 -33.25732422 88.24023438 C-33.32023098 96.07212653 -36.96088327 101.16901347 -41.79248047 107.05273438 C-43.99934534 109.97435217 -45.20426981 112.8104663 -46.44482422 116.24023438 C-48.65022536 114.03483323 -49.68489692 112.02628696 -51.06982422 109.24023438 C-51.73884766 107.90992188 -51.73884766 107.90992188 -52.42138672 106.55273438 C-53.44482422 104.24023438 -53.44482422 104.24023438 -53.44482422 102.24023438 C-57.89982422 102.73523438 -57.89982422 102.73523438 -62.44482422 103.24023438 C-64.35065454 98.98523607 -65.2993302 94.66205516 -66.17138672 90.10742188 C-66.32392914 89.3161087 -66.47647156 88.52479553 -66.63363647 87.70950317 C-66.95421378 86.03069749 -67.27174235 84.35130715 -67.58642578 82.67138672 C-68.0596952 80.16879541 -68.55651646 77.67166019 -69.05419922 75.17382812 C-72.24155017 58.58455126 -75.08972689 37.36251086 -65.69482422 22.24023438 C-62.39657168 17.82057598 -58.41995734 13.72780094 -53.44482422 11.24023438 C-51.3433424 11.11695509 -49.23738515 11.06465431 -47.13232422 11.05273438 C-46.00181641 11.03855469 -44.87130859 11.024375 -43.70654297 11.00976562 C-40.51277579 11.23543301 -38.31718132 11.87680783 -35.44482422 13.24023438 C-35.21794922 12.66273438 -34.99107422 12.08523438 -34.75732422 11.49023438 C-31.24695121 5.47245207 -24.75405585 3.34002553 -18.44482422 1.24023438 C-12.38092468 -0.23793315 -6.20152506 0.01676465 0 0 Z " fill="#181F3F" transform="translate(601.44482421875,508.759765625)"/>
<path d="M0 0 C3.53890677 2.81337868 6.79894989 5.80993119 10 9 C10.63808594 9.61488281 11.27617188 10.22976563 11.93359375 10.86328125 C21.91337467 21.24314247 27.19300567 35.92901838 27.01953125 50.22265625 C26.32828938 68.73684446 19.77648278 85.21411141 6.21484375 98.125 C-3.53083378 106.37530902 -16.85758604 113.63214847 -29.95703125 112.8515625 C-43.23800069 112.28798943 -52.40539152 113.60650807 -64 120 C-65.87391051 120.96412744 -67.75621084 121.90938355 -69.64233398 122.84936523 C-71.31201471 123.68704403 -72.96724751 124.55335207 -74.62109375 125.421875 C-78.65317864 127.30506841 -82.75709273 128.67688522 -87 130 C-86.53775024 128.6682373 -86.53775024 128.6682373 -86.06616211 127.30957031 C-84.92649566 124.00995638 -83.7963964 120.7073825 -82.67260742 117.40234375 C-82.18453746 115.97330863 -81.69270318 114.54555337 -81.19702148 113.11914062 C-80.48465371 111.06706415 -79.78600707 109.01074655 -79.08984375 106.953125 C-78.66566162 105.71723633 -78.24147949 104.48134766 -77.80444336 103.20800781 C-77.04086919 100.16298061 -76.77195199 98.82701329 -78 96 C-79.61984154 94.06098604 -79.61984154 94.06098604 -81.625 92.125 C-93.74810056 78.84835487 -96.86076936 62.17004852 -96.34375 44.7421875 C-96.00795968 38.65718727 -94.6072564 33.50677164 -92 28 C-91.49082031 26.91203125 -90.98164062 25.8240625 -90.45703125 24.703125 C-84.75556755 13.37847857 -77.74452718 5.66736285 -67 -1 C-65.700625 -1.82177734 -65.700625 -1.82177734 -64.375 -2.66015625 C-45.0233391 -14.10801379 -18.4780583 -12.90031624 0 0 Z " fill="#BBCBFE" transform="translate(944,511)"/>
<path d="M0 0 C1.1446875 -0.0157608 2.289375 -0.03152161 3.46875 -0.04776001 C5.30953125 -0.03257828 5.30953125 -0.03257828 7.1875 -0.01708984 C8.4559375 -0.02187347 9.724375 -0.0266571 11.03125 -0.03158569 C13.71180824 -0.03498668 16.39008142 -0.02830013 19.0703125 -0.00488281 C22.49725855 0.02360724 25.92224681 0.00719564 29.34912109 -0.02274513 C32.62864993 -0.04520779 35.90794556 -0.02945796 39.1875 -0.01708984 C40.4146875 -0.027211 41.641875 -0.03733215 42.90625 -0.04776001 C44.0509375 -0.03199921 45.195625 -0.0162384 46.375 0 C47.88126953 0.00596695 47.88126953 0.00596695 49.41796875 0.01205444 C53.3002394 0.90206944 54.69019381 2.58069078 57.1875 5.64697266 C57.81111908 8.94001961 57.81111908 8.94001961 57.80895996 12.75784302 C57.81534878 13.46236945 57.8217376 14.16689588 57.82832003 14.8927716 C57.84355137 17.24778156 57.8231237 19.60110399 57.80273438 21.95605469 C57.8062361 23.64649004 57.81189527 25.3369221 57.81954956 27.02734375 C57.83379771 31.6140986 57.81673723 36.20025401 57.79326439 40.78695154 C57.77316429 45.58484332 57.77903439 50.38271002 57.78137207 55.18063354 C57.7813185 63.2357574 57.76155987 71.29064668 57.72949219 79.34570312 C57.69257442 88.66447971 57.68382005 97.98294924 57.6907897 107.3017894 C57.69708922 116.26181132 57.68635225 125.22172773 57.66682434 134.18172836 C57.65864006 137.99747086 57.65594267 141.81315952 57.65751648 145.62891006 C57.6583938 150.11875286 57.64422067 154.6083027 57.61828995 159.09806824 C57.61111308 160.74805659 57.60905181 162.39807608 57.61240768 164.04807663 C57.61610793 166.29572802 57.60142721 168.54251748 57.58190918 170.79006958 C57.57631611 172.67876109 57.57631611 172.67876109 57.57061005 174.60560799 C57.1875 177.64697266 57.1875 177.64697266 55.78784943 179.5130291 C52.65334372 181.7340144 50.52585159 181.79136759 46.71557617 181.83984375 C45.57066208 181.85590668 44.42574799 181.8719696 43.24613953 181.88851929 C38.0077795 181.93288213 32.76950712 181.97447366 27.53100586 181.99707031 C24.76536957 182.01040534 22.00047192 182.03824819 19.23510742 182.07910156 C15.25441468 182.13790742 11.27408105 182.15573148 7.29296875 182.17041016 C5.43807076 182.20441422 5.43807076 182.20441422 3.54570007 182.23910522 C1.81414421 182.23483017 1.81414421 182.23483017 0.04760742 182.23046875 C-0.96562088 182.2385556 -1.97884918 182.24664246 -3.02278137 182.25497437 C-6.93332129 181.40269667 -8.30402552 179.72589071 -10.8125 176.64697266 C-11.4417057 173.3751297 -11.4417057 173.3751297 -11.44741821 169.58752441 C-11.45521817 168.88849267 -11.46301812 168.18946092 -11.47105443 167.46924639 C-11.49095863 165.13276604 -11.47521804 162.79791746 -11.45947266 160.46142578 C-11.46624955 158.78408356 -11.47515309 157.10674879 -11.48602295 155.4294281 C-11.50881453 150.87769512 -11.49998066 146.32652887 -11.48412752 141.774786 C-11.47146777 137.01117807 -11.48320884 132.24761863 -11.49105835 127.48400879 C-11.50015469 119.48436776 -11.48816741 111.48495755 -11.46435547 103.48535156 C-11.43714419 94.23694439 -11.44595837 84.98908834 -11.4734875 75.74069452 C-11.496178 67.79998129 -11.49937894 59.85943396 -11.48629415 51.91869879 C-11.47849931 47.17614044 -11.47745893 42.43384114 -11.49397659 37.69129944 C-11.50842128 33.23250089 -11.49840001 28.7744128 -11.46950531 24.31569099 C-11.46289444 22.67944074 -11.46479227 21.04313068 -11.47581863 19.40690422 C-11.48948709 17.17260304 -11.47234743 14.94057708 -11.44741821 12.7064209 C-11.44553308 11.45651115 -11.44364796 10.20660141 -11.4417057 8.91881561 C-10.21463382 2.5380939 -6.2180565 0.02463226 0 0 Z " fill="#FD7484" transform="translate(994.8125,760.35302734375)"/>
<path d="M0 0 C1.72198608 -0.01407143 1.72198608 -0.01407143 3.47875977 -0.02842712 C4.71424561 -0.01719315 5.94973145 -0.00595917 7.22265625 0.00561523 C8.49488037 0.00416 9.76710449 0.00270477 11.07788086 0.00120544 C13.76828997 0.00286581 16.45728633 0.01235755 19.14746094 0.03515625 C22.59094652 0.06354166 26.03354535 0.06080261 29.47709656 0.04806614 C32.76734008 0.0394282 36.05744047 0.0545588 39.34765625 0.06811523 C40.58314209 0.0651796 41.81862793 0.06224396 43.09155273 0.05921936 C44.23954346 0.07190353 45.38753418 0.08458771 46.5703125 0.09765625 C47.579729 0.10305923 48.58914551 0.10846222 49.62915039 0.11402893 C52.84197747 0.58298459 54.01571215 1.18096891 56.28515625 3.50170898 C56.80134487 6.57989502 56.80134487 6.57989502 56.82432556 10.44799805 C56.83394351 11.15898273 56.84356146 11.86996742 56.85347086 12.6024971 C56.88085119 14.99101622 56.87968696 17.37867045 56.87866211 19.76733398 C56.89230387 21.47718697 56.90765478 23.18702706 56.92459106 24.89685059 C56.9653646 29.54550839 56.9810252 34.19394542 56.99145579 38.84275818 C57.00572881 43.70213184 57.04014927 48.56136768 57.07167053 53.4206543 C57.121404 61.58176676 57.1549878 69.74282646 57.17895508 77.90405273 C57.20687282 87.34673392 57.2596657 96.78902583 57.32593817 106.23151016 C57.38910037 115.30569944 57.43522609 124.37989713 57.47336006 133.45422363 C57.4898762 137.32024392 57.51230161 141.18616394 57.53941154 145.05212402 C57.570511 149.60258262 57.58669913 154.15285471 57.59125137 158.70341492 C57.59531998 160.37601287 57.60454584 162.04860719 57.61923027 163.72114563 C57.63838003 165.99946184 57.63904469 168.27704462 57.63487244 170.55541992 C57.63981688 171.83189392 57.64476133 173.10836792 57.64985561 174.42352295 C57.28515625 177.50170898 57.28515625 177.50170898 55.88829899 179.37335205 C52.73979429 181.58939746 50.61815739 181.64161235 46.79736328 181.67871094 C45.6492215 181.69154617 44.50107971 181.70438141 43.31814575 181.71760559 C41.44943314 181.72868599 41.44943314 181.72868599 39.54296875 181.73999023 C38.26791473 181.74806198 36.99286072 181.75613373 35.6791687 181.76445007 C32.97731889 181.77830026 30.2755915 181.78931426 27.57373047 181.796875 C24.11447708 181.80794282 20.65586639 181.84234731 17.19684029 181.8820467 C13.89561338 181.9144879 10.59433078 181.91898942 7.29296875 181.92749023 C6.0512088 181.94499832 4.80944885 181.96250641 3.53005981 181.98054504 C1.79839066 181.97615669 1.79839066 181.97615669 0.03173828 181.97167969 C-0.98371063 181.97754593 -1.99915955 181.98341217 -3.04537964 181.98945618 C-6.55430795 181.34832752 -7.54039721 180.30984045 -9.71484375 177.50170898 C-10.21820831 174.3188858 -10.21820831 174.3188858 -10.22277832 170.4798584 C-10.22901828 169.7728084 -10.23525825 169.06575841 -10.2416873 168.33728266 C-10.2576431 165.96792415 -10.24500383 163.59959076 -10.23242188 161.23022461 C-10.23784188 159.53170674 -10.24496385 157.83319357 -10.25366211 156.13468933 C-10.27191299 151.52105137 -10.26482071 146.9077708 -10.25214577 142.29412651 C-10.24202722 137.46865746 -10.25140826 132.64321926 -10.25769043 127.81774902 C-10.26497018 119.71381123 -10.25537055 111.61001919 -10.23632812 103.50610352 C-10.21455875 94.1333665 -10.22160989 84.7609775 -10.24363375 75.38824892 C-10.26177842 67.3448299 -10.26435064 59.30151573 -10.25387907 51.25808287 C-10.24763901 46.45241814 -10.24682258 41.64691707 -10.26002502 36.84126282 C-10.27156936 32.32348124 -10.26358389 27.80614889 -10.240448 23.28841591 C-10.2351533 21.62916625 -10.23668769 19.96987886 -10.24549866 18.31064415 C-10.25640835 16.04777013 -10.24274816 13.78634115 -10.22277832 11.52355957 C-10.22127022 10.25668053 -10.21976212 8.98980148 -10.21820831 7.68453217 C-9.24465133 1.52863647 -5.8366454 0.00096082 0 0 Z " fill="#7B95F1" transform="translate(927.71484375,760.498291015625)"/>
<path d="M0 0 C7.70686337 -0.81124878 13.50746942 1.49039933 20.44921875 4.4921875 C26.29453507 6.97435703 30.91230585 8.24314961 37.3046875 8.2734375 C38.70703921 8.29372786 40.10938291 8.31457868 41.51171875 8.3359375 C43.69261497 8.35847653 45.87319203 8.37499514 48.05419922 8.38085938 C63.24987171 8.44954038 63.24987171 8.44954038 70 13 C74.76835436 18.01932038 76.21209297 22.17147238 77 29 C77.17015625 28.38511719 77.3403125 27.77023437 77.515625 27.13671875 C79.45622378 20.66461538 79.45622378 20.66461538 81.6875 17.9375 C85.16956645 16.52585144 88.35656073 16.23627908 92 17 C95.49794376 19.00211254 97.76779717 21.65169576 100 25 C100.30078125 28.14453125 100.30078125 28.14453125 100.3125 31.8125 C100.32925781 33.01519531 100.34601563 34.21789062 100.36328125 35.45703125 C99.70072454 41.91874024 96.74158398 45.74473232 92 50 C89.70370006 51.14814997 87.92301914 51.30769809 85.375 51.5625 C84.55773437 51.64628906 83.74046875 51.73007812 82.8984375 51.81640625 C82.27195312 51.87699219 81.64546875 51.93757812 81 52 C80.79246094 52.61746094 80.58492187 53.23492188 80.37109375 53.87109375 C77.60825615 61.46600716 73.79916915 67.96138252 67.41577148 73.06689453 C64.09460219 77.09928744 64.3495259 79.9704884 64.46875 85.03515625 C64.46548706 85.90965927 64.46222412 86.78416229 64.4588623 87.68516541 C64.44577179 91.40803033 64.49004077 95.12967954 64.52978516 98.85229492 C64.62473231 111.34667857 64.33699819 121.39552021 56.89453125 132 C49.43752284 139.16320508 40.78370407 143.37550305 30.28125 143.21875 C23.47951413 142.56652875 17.33677478 140.26941983 12 136 C11.42507813 135.54109375 10.85015625 135.0821875 10.2578125 134.609375 C4.36256738 129.39726987 0.60237894 122.64424568 -0.24130249 114.73901367 C-0.59921095 107.65596878 -0.41824213 100.54817307 -0.24389648 93.46142578 C0.38821766 82.90160077 0.38821766 82.90160077 -2.70703125 73.13525391 C-4.7005871 71.18338316 -6.7250769 69.60509872 -9 68 C-12.5912314 63.10538732 -15.44761794 57.89905183 -17 52 C-17.59167969 51.96261719 -18.18335938 51.92523437 -18.79296875 51.88671875 C-23.55063854 51.49089304 -27.20703795 51.14273998 -31 48 C-36.48694647 40.68407137 -36.94870156 33.97141697 -36 25 C-34.64608024 22.22143333 -33.37214705 21.0897486 -31 19 C-30.34 18.01 -29.68 17.02 -29 16 C-28.67 16.33 -28.34 16.66 -28 17 C-25.32941149 17.14115161 -22.67567762 17.04247107 -20 17 C-16.535 23.435 -16.535 23.435 -13 30 C-12.46375 28.68 -11.9275 27.36 -11.375 26 C-9.86895905 22.57375684 -8.19208822 19.74861423 -5.875 16.8125 C-1.76302253 11.57154131 -0.78747136 6.56226135 0 0 Z " fill="#FBC4B5" transform="translate(568,594)"/>
<path d="M0 0 C0 22.44 0 44.88 0 68 C22.11 68 44.22 68 67 68 C67 80.89447774 67 80.89447774 64.9375 87.4375 C64.60250488 88.52526733 64.60250488 88.52526733 64.26074219 89.63500977 C58.77403645 106.51876038 46.49699182 120.82283416 30.66308594 128.89355469 C14.09896576 136.85008204 -5.43260561 139.13201502 -23 133 C-39.99168938 126.35559193 -54.99880939 113.98065909 -62.8359375 97.16015625 C-66.76703074 86.48816151 -70.43082677 74.43035476 -69 63 C-68.8659375 61.79472656 -68.731875 60.58945312 -68.59375 59.34765625 C-66.67851767 45.26516724 -60.49545809 32.57749866 -51 22 C-50.52820313 21.41347656 -50.05640625 20.82695312 -49.5703125 20.22265625 C-39.34721363 8.54289822 -21.21350726 1.81341673 -6.125 0.1875 C-4.0740498 0.05888109 -2.05435066 0 0 0 Z " fill="#7B95F2" transform="translate(311,476)"/>
<path d="M0 0 C1.43676432 -0.0008295 2.87352853 -0.00329193 4.31028748 -0.00730896 C7.31384013 -0.01016026 10.31664429 0.00446885 13.32006836 0.03198242 C17.16262476 0.06609639 21.00384633 0.06003127 24.84646702 0.04131985 C27.81059322 0.03073364 30.7744107 0.03970156 33.73850822 0.05470467 C35.1550295 0.05987307 36.57158319 0.05942098 37.98810005 0.05315971 C39.96940424 0.0476878 41.95072427 0.07097849 43.93188477 0.09545898 C45.62016136 0.10475685 45.62016136 0.10475685 47.34254456 0.11424255 C51.20144703 0.77001431 52.79920723 1.66900197 55.37109375 4.62890625 C55.87619107 7.46132353 56.05656344 9.69911774 56.01806641 12.53100586 C56.026828 13.32335129 56.0355896 14.11569672 56.0446167 14.93205261 C56.06660767 17.5490103 56.05205875 20.16427539 56.03515625 22.78125 C56.03852483 24.60201847 56.04337781 26.42278475 56.0496521 28.24354553 C56.05702327 32.05931002 56.04631154 35.87448913 56.02294922 39.69018555 C55.99448126 44.57762551 56.01085088 49.46369151 56.04081154 54.35108089 C56.05889537 58.1112754 56.05312122 61.87114518 56.04017258 65.63134956 C56.0368405 67.43305181 56.0409187 69.23478368 56.05257034 71.03645134 C56.06529512 73.55756334 56.04588103 76.07646447 56.01806641 78.59741211 C56.03324814 79.71116211 56.03324814 79.71116211 56.04873657 80.84741211 C55.97186776 84.61505436 55.45682223 86.51006043 53.23410034 89.59143066 C49.81857757 92.02210766 48.07637098 92.25646422 43.91601562 92.26000977 C42.63118286 92.27254288 41.3463501 92.28507599 40.02258301 92.29798889 C38.62832625 92.28572018 37.23407922 92.2723001 35.83984375 92.2578125 C34.40165019 92.25864174 32.96345674 92.26110322 31.52526855 92.26512146 C28.5157406 92.26797555 25.50695848 92.25331808 22.49755859 92.22583008 C18.64712687 92.19174646 14.79802821 92.19776835 10.94753265 92.21649265 C7.97911542 92.22708028 5.0110064 92.21810914 2.0426178 92.20310783 C0.62330542 92.1979384 -0.79603931 92.19839279 -2.21534729 92.20465279 C-4.20155008 92.21012517 -6.18776866 92.18683289 -8.17382812 92.16235352 C-9.30236206 92.15615494 -10.430896 92.14995636 -11.59362793 92.14356995 C-15.3169109 91.51224775 -16.99171535 90.29366315 -19.62890625 87.62890625 C-20.44140625 84.37890625 -20.44140625 84.37890625 -20.62890625 81.62890625 C-21.8921875 81.36851562 -23.15546875 81.108125 -24.45703125 80.83984375 C-29.87639547 79.63247561 -35.11110573 77.99731527 -40.37890625 76.25390625 C-41.29800781 75.96257812 -42.21710938 75.67125 -43.1640625 75.37109375 C-53.67529908 71.90284203 -53.67529908 71.90284203 -56.73377991 66.77731323 C-57.71100246 64.43186583 -57.89961208 62.76247689 -57.93530273 60.23095703 C-57.95129013 59.36971222 -57.96727753 58.50846741 -57.98374939 57.62112427 C-57.98911209 56.69814545 -57.99447479 55.77516663 -58 54.82421875 C-58.01354271 53.38911453 -58.01354271 53.38911453 -58.02735901 51.92501831 C-58.04185417 49.90268072 -58.05074642 47.88029631 -58.05444336 45.85791016 C-58.06633785 42.77165329 -58.1155291 39.68739744 -58.16601562 36.6015625 C-58.17548053 34.63412432 -58.18271524 32.66667388 -58.1875 30.69921875 C-58.20703232 29.78028839 -58.22656464 28.86135803 -58.24668884 27.9145813 C-58.21656979 23.61531702 -58.0642238 20.57551533 -55.34399414 17.12451172 C-50.80402224 12.95154231 -48.28332027 12.37750249 -42.11328125 12.43359375 C-40.23769531 12.44326172 -40.23769531 12.44326172 -38.32421875 12.453125 C-37.02226562 12.46988281 -35.7203125 12.48664062 -34.37890625 12.50390625 C-33.06148437 12.51292969 -31.7440625 12.52195312 -30.38671875 12.53125 C-27.13393163 12.55482092 -23.88151036 12.58772603 -20.62890625 12.62890625 C-20.75265625 11.57703125 -20.87640625 10.52515625 -21.00390625 9.44140625 C-20.62890625 5.62890625 -20.62890625 5.62890625 -18.51977539 2.92993164 C-13.28169429 -1.09202077 -6.27847557 -0.06548978 0 0 Z " fill="#6876EC" transform="translate(252.62890625,850.37109375)"/>
<path d="M0 0 C3.84684627 11.69553993 7.25371619 23.45531256 10.3840332 35.36279297 C12.14045273 41.986698 14.08520779 48.49949273 16.25 55 C21.80039537 71.91368034 25.05203381 89.25302287 17.4375 105.9375 C12.28131936 115.82538151 5.22609606 121.78427497 -5 126 C-5.6695874 126.34603271 -6.3391748 126.69206543 -7.02905273 127.04858398 C-11.3269953 128.42495691 -15.41004796 128.24591713 -19.89453125 128.1953125 C-20.84188644 128.1924826 -21.78924164 128.18965271 -22.76530457 128.18673706 C-25.78116666 128.17557187 -28.79672816 128.15047389 -31.8125 128.125 C-33.86132383 128.11496547 -35.91015232 128.10584045 -37.95898438 128.09765625 C-42.97277148 128.07564449 -47.98633483 128.04113971 -53 128 C-53.06409178 126.05250937 -53.11017605 124.10441929 -53.1484375 122.15625 C-53.17599121 121.07150391 -53.20354492 119.98675781 -53.23193359 118.86914062 C-53 116 -53 116 -50.625 113.5 C-49.75875 113.005 -48.8925 112.51 -48 112 C-45.18350987 108.19876535 -45.64852616 103.60492747 -45.5859375 99.078125 C-45.56829346 98.3154834 -45.55064941 97.5528418 -45.5324707 96.76708984 C-45.46958013 93.92827124 -45.42327165 91.08910481 -45.375 88.25 C-45.25125 81.8975 -45.1275 75.545 -45 69 C-31.47 68.67 -17.94 68.34 -4 68 C-4 66.35 -4 64.7 -4 63 C-24.295 62.505 -24.295 62.505 -45 62 C-45 46.82 -45 31.64 -45 16 C-39.39 14.68 -33.78 13.36 -28 12 C-24.50634153 10.74561491 -21.23250596 9.51324212 -17.875 8 C-16.71871094 7.505 -16.71871094 7.505 -15.5390625 7 C-11.92665076 5.42724931 -8.4697694 3.74369285 -5.0703125 1.75 C-2 0 -2 0 0 0 Z " fill="#FCC4B6" transform="translate(778,813)"/>
<path d="M0 0 C2.97734752 1.16591389 5.88569299 2.38400958 8.75 3.8046875 C20.6839479 9.63469148 31.89541145 13.37908229 45 16 C45 31.18 45 46.36 45 62 C31.47 62.33 17.94 62.66 4 63 C4 64.65 4 66.3 4 68 C24.295 68.495 24.295 68.495 45 69 C45.25 88.125 45.25 88.125 45.29785156 94.12939453 C45.32723808 95.71389646 45.35806687 97.29837257 45.390625 98.8828125 C45.39231689 100.09988892 45.39231689 100.09988892 45.39404297 101.34155273 C45.52760795 106.67275011 46.4501087 109.77996793 50 114 C51.485 114.99 51.485 114.99 53 116 C53.29296875 118.8203125 53.29296875 118.8203125 53.1875 122.125 C53.14689453 123.76855469 53.14689453 123.76855469 53.10546875 125.4453125 C53.07066406 126.28835938 53.03585937 127.13140625 53 128 C47.05929342 128.09953497 41.11908173 128.17178154 35.17773438 128.21972656 C33.16039565 128.23973216 31.1431141 128.2669456 29.12597656 128.30175781 C26.21144427 128.35076577 23.29768441 128.37307964 20.3828125 128.390625 C19.49385284 128.41127014 18.60489319 128.43191528 17.68899536 128.45318604 C6.4409319 128.45713693 -2.11702013 123.60909813 -10.09765625 116 C-18.81107573 106.87941138 -22.14012543 97.13637597 -22.10083008 84.72241211 C-21.94440891 80.49904067 -21.2560113 76.4525181 -20.4375 72.3125 C-20.26259033 71.41168701 -20.08768066 70.51087402 -19.9074707 69.58276367 C-18.33409954 61.88962182 -16.1548285 54.44566721 -13.78564453 46.96484375 C-11.08189059 38.42092381 -8.73986504 29.80252753 -6.48510742 21.13012695 C-4.60614855 13.98101434 -2.4171538 6.98539554 0 0 Z " fill="#FCC4B6" transform="translate(422,813)"/>
<path d="M0 0 C0.79205338 -0.0065712 1.58410675 -0.0131424 2.40016174 -0.01991272 C5.02743622 -0.03966093 7.65465349 -0.05131164 10.28198242 -0.0612793 C11.17857763 -0.06535482 12.07517284 -0.06943035 12.99893761 -0.07362938 C17.74440659 -0.09449657 22.4898466 -0.1087955 27.23535156 -0.11816406 C32.13827288 -0.12923023 37.04074056 -0.16363054 41.94350147 -0.20333576 C45.71218208 -0.2294746 49.48075416 -0.23785346 53.24951744 -0.24144554 C55.05683137 -0.24631854 56.86414024 -0.25795283 58.67136574 -0.27648354 C61.20184954 -0.30081745 63.7311539 -0.29992081 66.26171875 -0.29296875 C67.00736084 -0.30577881 67.75300293 -0.31858887 68.52124023 -0.33178711 C73.40456202 -0.28292306 75.90287536 0.69328723 79.32495117 4.17700195 C81.02166525 7.57043011 80.50985273 11.43122707 80.52807617 15.1652832 C80.53377625 16.06063278 80.53947632 16.95598236 80.54534912 17.87846375 C80.55480507 19.77573462 80.56133546 21.67302197 80.56518555 23.5703125 C80.57487756 26.46749726 80.60588948 29.36396857 80.63745117 32.26098633 C80.6439826 34.10408107 80.64923252 35.94718089 80.65307617 37.7902832 C80.66542297 38.65502762 80.67776978 39.51977203 80.69049072 40.41072083 C80.67302114 45.14916873 80.43804135 48.3434294 77.32495117 52.17700195 C74.20308898 53.73793305 70.8784671 53.34206377 67.45043945 53.35400391 C66.63727264 53.3605751 65.82410583 53.3671463 64.98629761 53.37391663 C62.28928542 53.39366403 59.5923289 53.40531449 56.89526367 53.4152832 C55.97535519 53.41935873 55.0554467 53.42343426 54.1076622 53.42763329 C49.24015272 53.44849871 44.37267149 53.46279921 39.50512695 53.47216797 C34.47207642 53.48324235 29.43946681 53.51765265 24.40657234 53.55733967 C20.54099695 53.58345394 16.67552752 53.5918551 12.80987167 53.59544945 C10.95428357 53.60032771 9.09870058 53.61197679 7.24319839 53.63048744 C4.64785804 53.65477231 2.05367056 53.65393384 -0.54174805 53.64697266 C-1.30968689 53.65978271 -2.07762573 53.67259277 -2.86883545 53.68579102 C-6.39452152 53.65128042 -8.29843117 53.470244 -11.12088013 51.27262878 C-14.22790436 47.08314579 -13.87051593 43.23591591 -13.91333008 38.1887207 C-13.92140182 37.29337112 -13.92947357 36.39802155 -13.93778992 35.47554016 C-13.95163313 33.57827696 -13.96235422 31.68098883 -13.97021484 29.78369141 C-13.98741929 26.88631802 -14.0313016 23.99008816 -14.07543945 21.09301758 C-14.08556715 19.24992701 -14.09408301 17.40682674 -14.10083008 15.5637207 C-14.11833817 14.69897629 -14.13584625 13.83423187 -14.15388489 12.94328308 C-14.13907178 8.82164543 -14.0165745 6.72013695 -11.7734375 3.15283203 C-8.0670337 -0.33709536 -4.85537599 0.01736781 0 0 Z " fill="#7B95F2" transform="translate(875.675048828125,535.822998046875)"/>
<path d="M0 0 C16.17289349 8.72857374 27.53461357 21.80360236 34 39 C34.69902805 41.66786243 35.21457427 44.34640739 35.6875 47.0625 C35.88182617 48.0844043 35.88182617 48.0844043 36.08007812 49.12695312 C36.82487358 53.22923918 37 56.77114056 37 61 C14.56 61 -7.88 61 -31 61 C-31 38.89 -31 16.78 -31 -6 C-21.54141466 -9.15286178 -8.49614449 -4.09073624 0 0 Z " fill="#FECC8A" transform="translate(347,477)"/>
<path d="M0 0 C82.5 0 165 0 250 0 C250 3.96 250 7.92 250 12 C167.5 12 85 12 0 12 C0 8.04 0 4.08 0 0 Z " fill="#0A0705" transform="translate(475,930)"/>
<path d="M0 0 C8.91 0 17.82 0 27 0 C27 33.66 27 67.32 27 102 C18.09 102 9.18 102 0 102 C-1.94081408 100.05918592 -1.12687049 97.12385021 -1.13552856 94.54055786 C-1.13350433 93.61065033 -1.1314801 92.6807428 -1.12939453 91.72265625 C-1.13114685 90.74875946 -1.13289917 89.77486267 -1.13470459 88.77145386 C-1.13912499 85.53511806 -1.13618445 82.2988364 -1.1328125 79.0625 C-1.13348549 76.82430002 -1.13445546 74.58610012 -1.13571167 72.34790039 C-1.1371889 67.65022081 -1.13503329 62.9525602 -1.13037109 58.25488281 C-1.1246738 52.21839386 -1.12795267 46.18194936 -1.13394356 40.14546204 C-1.1375485 35.52168439 -1.13641089 30.89791736 -1.13381577 26.2741394 C-1.13314631 24.04767858 -1.13397556 21.8212168 -1.13629532 19.59475708 C-1.13882074 16.48892645 -1.1349828 13.3831689 -1.12939453 10.27734375 C-1.13141876 9.34743622 -1.13344299 8.41752869 -1.13552856 7.45944214 C-1.11426227 1.11426227 -1.11426227 1.11426227 0 0 Z " fill="#ECC3F0" transform="translate(1005,774)"/>
<path d="M0 0 C8.91 0 17.82 0 27 0 C27 33.66 27 67.32 27 102 C18.09 102 9.18 102 0 102 C-1.94081408 100.05918592 -1.12687049 97.12385021 -1.13552856 94.54055786 C-1.13350433 93.61065033 -1.1314801 92.6807428 -1.12939453 91.72265625 C-1.13114685 90.74875946 -1.13289917 89.77486267 -1.13470459 88.77145386 C-1.13912499 85.53511806 -1.13618445 82.2988364 -1.1328125 79.0625 C-1.13348549 76.82430002 -1.13445546 74.58610012 -1.13571167 72.34790039 C-1.1371889 67.65022081 -1.13503329 62.9525602 -1.13037109 58.25488281 C-1.1246738 52.21839386 -1.12795267 46.18194936 -1.13394356 40.14546204 C-1.1375485 35.52168439 -1.13641089 30.89791736 -1.13381577 26.2741394 C-1.13314631 24.04767858 -1.13397556 21.8212168 -1.13629532 19.59475708 C-1.13882074 16.48892645 -1.1349828 13.3831689 -1.12939453 10.27734375 C-1.13141876 9.34743622 -1.13344299 8.41752869 -1.13552856 7.45944214 C-1.11426227 1.11426227 -1.11426227 1.11426227 0 0 Z " fill="#B9CAFE" transform="translate(938,774)"/>
<path d="M0 0 C0.65806641 0.40557129 1.31613281 0.81114258 1.99414062 1.22900391 C15.73415407 9.60355722 28.88892013 12.05225758 44.8125 9.4375 C50.93507576 7.77879422 56.53554096 4.128148 62 1 C62.66 0.67 63.32 0.34 64 0 C64.12535793 4.19505502 64.21514515 8.38906477 64.2746582 12.58544922 C64.29951385 14.00719229 64.33341201 15.42881161 64.37719727 16.85009766 C64.70647039 27.82845087 63.37352133 36.76834067 56.89453125 46 C49.43752284 53.16320508 40.78370407 57.37550305 30.28125 57.21875 C23.47951413 56.56652875 17.33677478 54.26941983 12 50 C11.13761719 49.31164062 11.13761719 49.31164062 10.2578125 48.609375 C3.84981868 42.94393841 0.47344999 35.60303428 -0.39916992 27.11914062 C-0.54733698 22.99177654 -0.43962256 18.87644616 -0.3125 14.75 C-0.28734681 13.31123735 -0.2645462 11.87243157 -0.24414062 10.43359375 C-0.18978947 6.95481286 -0.10392157 3.47769547 0 0 Z " fill="#FCC4B5" transform="translate(568,680)"/>
<path d="M0 0 C0 22.77 0 45.54 0 69 C-6.81780621 67.48493195 -13.163601 65.8048068 -19.75 63.625 C-20.66910156 63.33367188 -21.58820313 63.04234375 -22.53515625 62.7421875 C-33.04639283 59.27393578 -33.04639283 59.27393578 -36.10487366 54.14840698 C-37.08209621 51.80295958 -37.27070583 50.13357064 -37.30639648 47.60205078 C-37.32238388 46.74080597 -37.33837128 45.87956116 -37.35484314 44.99221802 C-37.36020584 44.0692392 -37.36556854 43.14626038 -37.37109375 42.1953125 C-37.38463646 40.76020828 -37.38463646 40.76020828 -37.39845276 39.29611206 C-37.41294792 37.27377447 -37.42184017 35.25139006 -37.42553711 33.22900391 C-37.4374316 30.14274704 -37.48662285 27.05849119 -37.53710938 23.97265625 C-37.54657428 22.00521807 -37.55380899 20.03776763 -37.55859375 18.0703125 C-37.57812607 17.15138214 -37.59765839 16.23245178 -37.61778259 15.28567505 C-37.58766354 10.98641077 -37.43531755 7.94660908 -34.71508789 4.49560547 C-24.51044768 -4.88411148 -17.01042703 0 0 0 Z " fill="#6978ED" transform="translate(232,863)"/>
<path d="M0 0 C22.44 0 44.88 0 68 0 C68 12.89106531 68 12.89106531 65.9375 19.4375 C65.60468018 20.52309204 65.60468018 20.52309204 65.26513672 21.63061523 C61.95441919 31.85129585 56.44899453 40.30195095 49 48 C45.43188055 46.48269448 43.14279567 44.39063263 40.41503906 41.65795898 C39.51440735 40.7604039 38.61377563 39.86284882 37.68585205 38.93809509 C36.71226124 37.95760846 35.73885657 36.97693697 34.765625 35.99609375 C33.76279579 34.99207206 32.75959623 33.98842016 31.75604248 32.98512268 C29.65830228 30.88582091 27.56395797 28.78320894 25.47216797 26.67797852 C22.78480182 23.97356819 20.09084461 21.27584254 17.39456558 18.58032131 C15.32515323 16.51063778 13.25835158 14.43836418 11.19243622 12.36519051 C10.19942322 11.3689867 9.20579576 10.37339501 8.21155548 9.37841606 C6.82763889 7.99234338 5.4474117 6.60258996 4.06738281 5.21264648 C3.28002747 4.42147934 2.49267212 3.63031219 1.68145752 2.81517029 C0 1 0 1 0 0 Z " fill="#6777ED" transform="translate(310,544)"/>
<path d="M0 0 C10.62231427 -0.09264562 21.24453255 -0.1637374 31.86716843 -0.20724869 C36.79961153 -0.2281311 41.73177839 -0.2564607 46.6640625 -0.30175781 C51.42325814 -0.34519221 56.18218793 -0.36913218 60.94156647 -0.37950897 C62.75809159 -0.38690467 64.57460203 -0.40134669 66.3910141 -0.42292023 C68.93384844 -0.45192266 71.47558179 -0.4559574 74.01855469 -0.45410156 C74.77093414 -0.46848267 75.5233136 -0.48286377 76.29849243 -0.49768066 C79.89843588 -0.46921767 81.65932328 -0.2765372 84.49884033 2.02838135 C84.99422302 2.6790155 85.48960571 3.32964966 86 4 C85.34 4 84.68 4 84 4 C83.67 4.99 83.34 5.98 83 7 C80.7577901 8.40458112 78.56737762 9.63554281 76.21875 10.8359375 C75.53123657 11.19716705 74.84372314 11.55839661 74.13537598 11.93057251 C71.92821867 13.08784805 69.71442331 14.23169931 67.5 15.375 C65.32066551 16.51149831 63.14275414 17.65067511 60.96533203 18.79083252 C59.55816981 19.5254635 58.14900008 20.2562627 56.73779297 20.98309326 C52.34430446 23.25271966 48.09870511 25.66723885 43.97460938 28.40478516 C39.99960609 29.60298718 36.44875471 27.21892202 32.90722656 25.49121094 C31.82924805 24.91145508 30.75126953 24.33169922 29.640625 23.734375 C28.75670074 23.26055389 28.75670074 23.26055389 27.85491943 22.77716064 C26.61333506 22.11035726 25.37297396 21.44127159 24.13378906 20.77001953 C22.27176568 19.76178551 20.40581428 18.76116562 18.5390625 17.76171875 C11.58090928 14.02228418 4.72534478 10.14736085 -2 6 C-1.49396008 3.83125748 -1.00016187 2.00032373 0 0 Z " fill="#7D97F2" transform="translate(868,536)"/>
<path d="M0 0 C2 1 2 1 3.625 4.625 C6.54856037 10.64346493 11.29372701 14.16894721 16.75390625 17.86328125 C23.27183264 22.28837686 28.51601773 26.28971902 31 34 C32.418489 41.85135649 32.35527347 49.83046722 28.3125 56.875 C24.72313379 61.72211543 20.24667796 65.32966367 15.57861328 69.08081055 C10.49966391 73.22040011 7.89283821 76.4554535 6.609375 82.98828125 C6.1196782 88.71995966 8.48538908 92.63764373 12 97 C13.70063712 98.76391664 15.45589584 100.45509253 17.2265625 102.1484375 C22.43642758 107.58781205 26.79137623 114.20165318 27.125 121.875 C27.08375 122.57625 27.0425 123.2775 27 124 C26.01 124.495 26.01 124.495 25 125 C24.5359375 123.2675 24.5359375 123.2675 24.0625 121.5 C21.1403653 113.78012787 13.75691222 109.50113168 7.25 104.9375 C0.98878836 100.46270399 -3.32728188 95.75532945 -5 88 C-5.6733142 79.3758479 -4.60850378 72.30423857 0.8125 65.37890625 C4.34009399 61.54264779 8.22351038 58.08007822 12.14941406 54.65576172 C16.3884373 50.88378841 18.51389484 48.12696493 19.40625 42.38671875 C19.6225239 36.15983271 18.874461 32.57779437 14.78125 27.828125 C12.4545504 25.44019647 10.07269368 23.1140675 7.67578125 20.796875 C1.69942437 14.38866016 -0.14047021 8.56868267 0 0 Z " fill="#BFC8F9" transform="translate(276,711)"/>
<path d="M0 0 C1.17046875 0.03609375 2.3409375 0.0721875 3.546875 0.109375 C4.43890625 0.15578125 5.3309375 0.2021875 6.25 0.25 C5.92566483 0.74858521 5.60132965 1.24717041 5.26716614 1.76086426 C3.86938081 5.18142387 3.96311343 8.43964935 3.9753418 12.07617188 C3.97023087 12.86037003 3.96511993 13.64456818 3.95985413 14.45252991 C3.94596866 17.04134784 3.94691387 19.62989929 3.94921875 22.21875 C3.94533168 24.01949157 3.94099699 25.82023222 3.93623352 27.62097168 C3.92877389 31.39366632 3.92906105 35.16626737 3.93432617 38.93896484 C3.94012516 43.77461096 3.92317827 48.6098746 3.8999815 53.44545746 C3.88525476 57.16349529 3.88437093 60.88144073 3.88749123 64.59950256 C3.88697763 66.38249978 3.88173279 68.16550212 3.87167931 69.94847107 C3.85935053 72.44051037 3.86608445 74.93180093 3.87768555 77.42382812 C3.87004181 78.16057266 3.86239807 78.8973172 3.85452271 79.65638733 C3.8972048 83.80188163 4.30806077 86.24005926 7.25 89.25 C5.00165504 89.38526139 2.75097486 89.48210804 0.5 89.5625 C-0.75296875 89.62050781 -2.0059375 89.67851563 -3.296875 89.73828125 C-6.75 89.25 -6.75 89.25 -8.93347168 87.2099762 C-11.18436056 83.54222302 -11.31427601 80.57650757 -11.26757812 76.40209961 C-11.2745874 75.627509 -11.28159668 74.8529184 -11.28881836 74.05485535 C-11.30637238 71.50364965 -11.29478663 68.95356001 -11.28125 66.40234375 C-11.2839454 64.62545052 -11.28782822 62.84855872 -11.29284668 61.07167053 C-11.29873796 57.35191777 -11.29018983 53.63254977 -11.27148438 49.9128418 C-11.24867824 45.14544324 -11.26183048 40.37894461 -11.28577423 35.61157894 C-11.30022815 31.94410927 -11.29562841 28.27685301 -11.28526306 24.60937691 C-11.2825955 22.8515061 -11.28586657 21.0936159 -11.29518127 19.33576775 C-11.3053423 16.87949146 -11.2898544 14.42467352 -11.26757812 11.96850586 C-11.27567505 11.24268311 -11.28377197 10.51686035 -11.29211426 9.76904297 C-11.23518645 6.38038977 -10.9675634 4.54219166 -8.9197998 1.79200745 C-5.87589872 -0.37119587 -3.68773049 -0.14750922 0 0 Z " fill="#4955AA" transform="translate(242.75,851.75)"/>
<path d="M0 0 C5.56295681 2.46683153 9.63659553 6.86128451 14 11 C14.55075195 11.52207031 15.10150391 12.04414062 15.66894531 12.58203125 C26.99224832 23.40475175 36.17178116 35.04999686 45 48 C44.505 48.99 44.505 48.99 44 50 C43.3922876 49.85900879 42.7845752 49.71801758 42.15844727 49.57275391 C24.41024565 45.49051708 7.17283039 43.00519295 -11 42 C-10.51789062 40.97519531 -10.03578125 39.95039062 -9.5390625 38.89453125 C-8.90096806 37.53388869 -8.26295133 36.17320967 -7.625 34.8125 C-7.30789063 34.13896484 -6.99078125 33.46542969 -6.6640625 32.77148438 C-2.69908955 24.30461506 -0.95205501 16.95447286 -0.4375 7.625 C-0.39431641 6.88894531 -0.35113281 6.15289063 -0.30664062 5.39453125 C-0.20156201 3.59651932 -0.10037907 1.79828042 0 0 Z " fill="#E8EEFE" transform="translate(970,557)"/>
<path d="M0 0 C8.25 0 16.5 0 25 0 C25 14.19 25 28.38 25 43 C19.14147167 41.69810482 13.63420219 40.36318574 8 38.4375 C7.33355469 38.21642578 6.66710937 37.99535156 5.98046875 37.76757812 C1.13398858 36.13398858 1.13398858 36.13398858 0 35 C-0.08851529 32.40640678 -0.11525945 29.83960309 -0.09765625 27.24609375 C-0.09553383 26.08292381 -0.09553383 26.08292381 -0.09336853 24.89625549 C-0.08775345 22.40996506 -0.07519846 19.9237634 -0.0625 17.4375 C-0.05748694 15.75586067 -0.0529237 14.07421994 -0.04882812 12.39257812 C-0.03862832 8.26165671 -0.01905605 4.13092818 0 0 Z " fill="#DBE2FC" transform="translate(207,876)"/>
<path d="M0 0 C5.01791684 2.41935276 8.49958655 5.9991731 11 11 C11.4914074 16.83244197 11.83075678 22.17872553 9.375 27.5625 C4.85578733 32.20063932 0.33860561 35.07468364 -6.1875 35.375 C-12.85192529 35.2881671 -16.93163487 32.06836513 -21.5 27.5 C-23.83242387 22.05767764 -23.73499211 16.82796776 -23 11 C-18.15941187 0.78098061 -10.43194298 -0.98311505 0 0 Z " fill="#E6ECFC" transform="translate(606,824)"/>
<path d="M0 0 C9.24 0 18.48 0 28 0 C28 8.91 28 17.82 28 27 C18.76 27 9.52 27 0 27 C0 18.09 0 9.18 0 0 Z " fill="#ECC3F1" transform="translate(1004,902)"/>
<path d="M0 0 C8.91 0 17.82 0 27 0 C27 8.91 27 17.82 27 27 C18.09 27 9.18 27 0 27 C0 18.09 0 9.18 0 0 Z " fill="#BBCBFE" transform="translate(938,902)"/>
<path d="M0 0 C0.391875 0.556875 0.78375 1.11375 1.1875 1.6875 C4.35251679 5.72562487 7.80215355 8.89535247 12 11.8125 C16.65909358 15.26269998 20.16902165 19.22015159 21.44140625 25.0078125 C21.76476673 30.3276139 20.15094659 34.75376216 17 39 C14.47340396 41.50249496 11.86664899 43.82949265 9.14453125 46.1171875 C6.29137035 48.62214844 6.06458574 49.64477846 5.375 53.4375 C5.375 59.09199308 9.23966498 62.48851665 12.8359375 66.484375 C16.51271578 70.75846384 17.25618781 73.36386815 17 79 C15 78 15 78 13.71484375 75.6875 C11.70580782 72.53894255 9.64907156 71.07725847 6.5625 69 C1.69827417 65.71747482 -2.09918211 62.70245366 -4 57 C-4.97426797 50.16779171 -3.97958881 45.6501804 0.13671875 40.109375 C2.65862982 37.25438134 5.39973089 34.79793111 8.36328125 32.41015625 C10.83673859 30.2790868 10.98935537 29.09176788 11.37109375 25.80078125 C10.89671405 20.94213441 9.15428552 18.80231609 6.0625 15.1875 C5.13574724 14.05678515 4.20992271 12.92530869 3.28515625 11.79296875 C2.53105469 10.87128906 1.77695313 9.94960938 1 9 C-0.4783226 6.04335481 -0.06032783 3.25770263 0 0 Z " fill="#BFC8F9" transform="translate(243,757)"/>
<path d="M0 0 C0.87140625 0.47050781 1.7428125 0.94101562 2.640625 1.42578125 C15.48541312 8.20769864 29.2788992 13.03834542 43.8671875 8.765625 C50.76356514 6.29000226 57.5186595 3.42070748 64 0 C64.13595863 1.41396973 64.23243845 2.83176684 64.3125 4.25 C64.37050781 5.03890625 64.42851563 5.8278125 64.48828125 6.640625 C63.75854129 10.16672848 61.95344542 11.05104618 59 13 C56.8881805 14.1285944 54.73935369 15.19009589 52.5625 16.1875 C51.47066406 16.69667969 50.37882813 17.20585938 49.25390625 17.73046875 C37.37591908 22.36473745 22.60721361 21.30189822 11.015625 16.4765625 C2.38318513 12.2497979 2.38318513 12.2497979 0 9 C-0.62326734 5.88366332 -0.5002078 3.12629873 0 0 Z " fill="#1D2242" transform="translate(568,671)"/>
<path d="M0 0 C38.28 0 76.56 0 116 0 C116 1.65 116 3.3 116 5 C77.72 5 39.44 5 0 5 C0 3.35 0 1.7 0 0 Z " fill="#D7E1FD" transform="translate(545,405)"/>
<path d="M0 0 C38.28 0 76.56 0 116 0 C116 1.32 116 2.64 116 4 C77.72 4 39.44 4 0 4 C0 2.68 0 1.36 0 0 Z " fill="#E8EEFE" transform="translate(545,387)"/>
<path d="M0 0 C0.99 0.33 1.98 0.66 3 1 C2.01 1.495 2.01 1.495 1 2 C1.04412459 8.05115473 1.1139288 14.10126324 1.20751953 20.15185547 C1.23574049 22.21003898 1.25694941 24.2683311 1.27099609 26.32666016 C1.2924099 29.28604785 1.33905221 32.2441282 1.390625 35.203125 C1.39185364 36.12305237 1.39308228 37.04297974 1.39434814 37.99078369 C1.41406677 38.8513739 1.4337854 39.71196411 1.45410156 40.59863281 C1.46298401 41.35364075 1.47186646 42.10864868 1.48101807 42.88653564 C2.24916858 46.01469605 3.38689057 47.1263419 6 49 C8.73151374 49.40294341 11.06656578 49.56462513 13.79785156 49.54589844 C14.57872131 49.55623611 15.35959106 49.56657379 16.16412354 49.57722473 C18.73983399 49.6066738 21.31475936 49.6081523 23.890625 49.609375 C25.6785431 49.62435528 27.46644735 49.64108211 29.2543335 49.65948486 C33.95610181 49.70318789 38.65768345 49.72316397 43.35961914 49.73822021 C48.15912935 49.75778068 52.95843765 49.79975187 57.7578125 49.83984375 C67.17181276 49.9151778 76.58576791 49.96544991 86 50 C85.505 50.99 85.505 50.99 85 52 C74.1169163 52.09264076 63.23392626 52.16373496 52.35052872 52.20724869 C47.2970208 52.22813214 42.24378245 52.25646371 37.19042969 52.30175781 C32.31452532 52.34518839 27.4388804 52.3691314 22.56279755 52.37950897 C20.70161606 52.38690535 18.84044892 52.40134866 16.97937775 52.42292023 C14.37428496 52.45191744 11.77026702 52.45595759 9.16503906 52.45410156 C8.00841766 52.47567322 8.00841766 52.47567322 6.82843018 52.49768066 C3.29457203 52.47040029 1.38297658 52.2977964 -1.44781494 50.09661865 C-4.55090845 45.90510574 -4.19546745 42.05887288 -4.23828125 37.01171875 C-4.246353 36.11636917 -4.25442474 35.22101959 -4.26274109 34.29853821 C-4.2765843 32.40127501 -4.28730539 30.50398687 -4.29516602 28.60668945 C-4.31237046 25.70931606 -4.35625277 22.81308621 -4.40039062 19.91601562 C-4.41051832 18.07292506 -4.41903418 16.22982479 -4.42578125 14.38671875 C-4.44328934 13.52197433 -4.46079742 12.65722992 -4.47883606 11.76628113 C-4.46364772 7.54023676 -4.35369803 5.53870669 -1.97338867 1.91333008 C-1.32217041 1.28193115 -0.67095215 0.65053223 0 0 Z " fill="#6979ED" transform="translate(866,537)"/>
<path d="M0 0 C7.11759641 0.28828254 12.22168706 3.62317155 18.25 7.1875 C21.18790006 8.89381679 24.12717439 10.59769135 27.06835938 12.29833984 C29.05644118 13.45231471 31.03673718 14.61978853 33.00976562 15.79931641 C33.97076172 16.3566748 34.93175781 16.9140332 35.921875 17.48828125 C36.7787793 17.99528564 37.63568359 18.50229004 38.51855469 19.0246582 C41.62281936 20.24480159 42.85029003 20.05530002 46 19 C48.34470733 17.89014832 50.6022193 16.74790033 52.875 15.5078125 C53.52194824 15.16120575 54.16889648 14.814599 54.83544922 14.45748901 C56.89362222 13.35271066 58.94673663 12.23887128 61 11.125 C62.37990259 10.3835453 63.76010813 9.6426541 65.140625 8.90234375 C72.03231406 5.23791197 72.03231406 5.23791197 78.75390625 1.27685547 C81.37205625 -0.21150589 83.03571559 -0.25408152 86 0 C85.92382812 1.75415039 85.92382812 1.75415039 85 4 C82.74565961 5.50018102 80.62257934 6.72359828 78.21875 7.93359375 C77.53123657 8.29340836 76.84372314 8.65322296 76.13537598 9.02394104 C73.93000498 10.17468392 71.71549987 11.30640114 69.5 12.4375 C67.32035685 13.5666749 65.14270121 14.69960802 62.96533203 15.8331604 C61.55846705 16.56288054 60.14929773 17.2881762 58.73779297 18.00888062 C54.3378902 20.26090069 50.09535081 22.66350049 45.97460938 25.40258789 C42.00019048 26.60503634 38.44881398 24.21895093 34.90722656 22.49121094 C33.82924805 21.91145508 32.75126953 21.33169922 31.640625 20.734375 C30.75670074 20.26055389 30.75670074 20.26055389 29.85491943 19.77716064 C28.61333506 19.11035726 27.37297396 18.44127159 26.13378906 17.77001953 C24.27176568 16.76178551 22.40581428 15.76116562 20.5390625 14.76171875 C17.01127641 12.86723215 13.50289652 10.94015993 10 9 C8.97068359 8.43345703 7.94136719 7.86691406 6.88085938 7.28320312 C5.96626953 6.76177734 5.05167969 6.24035156 4.109375 5.703125 C3.30983398 5.25098633 2.51029297 4.79884766 1.68652344 4.33300781 C1.1299707 3.89311523 0.57341797 3.45322266 0 3 C0 2.01 0 1.02 0 0 Z " fill="#E2E9FE" transform="translate(866,539)"/>
<path d="M0 0 C22.77 0 45.54 0 69 0 C69 1.32 69 2.64 69 4 C46.23 4 23.46 4 0 4 C0 2.68 0 1.36 0 0 Z " fill="#E7EEFE" transform="translate(545,424)"/>
</svg>
